<svg width="140" height="269" viewBox="0 0 140 269" fill="none" xmlns="http://www.w3.org/2000/svg">
<path d="M5.29834 264.026V32.459C5.29834 21.4133 14.2526 12.459 25.2983 12.459H130.472" stroke="#021A45" stroke-width="2"/>
<ellipse cx="5.29845" cy="263.023" rx="5.00695" ry="5.01129" fill="#021A45"/>
<path d="M138.72 11.2324C139.136 11.6267 139.136 12.2886 138.72 12.6829L130.658 20.3365C130.021 20.9413 128.97 20.4897 128.97 19.6112L128.97 4.30401C128.97 3.42558 130.021 2.97397 130.658 3.57876L138.72 11.2324Z" fill="#021A45"/>
<path d="M138.376 11.5947C138.584 11.7919 138.584 12.1232 138.376 12.3203L130.314 19.9736C129.996 20.276 129.47 20.0505 129.47 19.6113L129.47 4.30371C129.47 3.86469 129.996 3.63908 130.314 3.94141L138.376 11.5947Z" stroke="#021A45" stroke-opacity="0.24"/>
</svg>
