<svg xmlns="http://www.w3.org/2000/svg" version="1.1" xmlns:xlink="http://www.w3.org/1999/xlink" width="58" height="58" x="0" y="0" viewBox="0 0 512 511" style="enable-background:new 0 0 512 512" xml:space="preserve" class=""><g><path fill="#efedee" d="M504.484 154.125V444.82c0 32.368-26.238 58.606-58.605 58.606H134.555c-32.364 0-58.606-26.238-58.606-58.606V154.125zm0 0" opacity="1" data-original="#efedee" class=""></path><path fill="#d2d2d2" d="M75.95 444.824c0 18.297 8.39 34.633 21.53 45.383h286.36c16.531 0 32.222-6.27 44.18-17.652 36.66-34.899 60.703-84.45 76.464-134.09v-184.34H75.95zm0 0" opacity="1" data-original="#d2d2d2"></path><path fill="#efedee" d="m290.219 96.668-214.27 57.457s-2.058 154.133-63.328 254.086c-13.95 22.758 2.305 51.996 28.992 51.996H383.84a34.062 34.062 0 0 0 23.496-9.383c94.387-89.844 97.148-296.695 97.148-296.695zm0 0" opacity="1" data-original="#efedee" class=""></path><path fill="#fd6f71" d="M504.484 97.816v56.309H75.95V97.816c0-32.367 26.239-58.605 58.606-58.605h311.324c32.367 0 58.605 26.238 58.605 58.605zm0 0" opacity="1" data-original="#fd6f71"></path><g fill="#3a484a"><path d="M156.406 8c-10.336 0-18.71 8.375-18.71 18.707v25.008c0 10.332 8.374 18.707 18.71 18.707 10.332 0 18.707-8.375 18.707-18.707V26.707C175.113 16.375 166.738 8 156.406 8zM246.66 8c-10.332 0-18.707 8.375-18.707 18.707v25.008c0 10.332 8.375 18.707 18.707 18.707s18.707-8.375 18.707-18.707V26.707C265.367 16.375 256.992 8 246.66 8zM336.914 8c-10.332 0-18.707 8.375-18.707 18.707v25.008c0 10.332 8.375 18.707 18.707 18.707s18.711-8.375 18.711-18.707V26.707c0-10.332-8.379-18.707-18.71-18.707zM427.172 8c-10.332 0-18.711 8.375-18.711 18.707v25.008c0 10.332 8.379 18.707 18.71 18.707s18.708-8.375 18.708-18.707V26.707C445.879 16.375 437.504 8 427.172 8zm0 0" fill="#ffffff" opacity="1" data-original="#3a484a" class=""></path></g><path fill="#fd6f71" d="M248.598 420.535c252.195-132.183 94.789-283.5 0-190.863-94.79-92.637-252.192 58.68 0 190.863zm0 0" opacity="1" data-original="#fd6f71"></path><path d="M245.129 427.176c2.125 1.113 4.797 1.136 6.965 0 54.23-28.422 93.566-59.606 116.922-92.68 25.558-36.207 25.586-65.5 21.105-83.703-4.16-16.883-13.84-31.293-28-41.672-13.621-9.984-30.832-15.484-48.46-15.484-22.966 0-45.821 9.125-65.048 25.84-19.226-16.711-42.086-25.84-65.05-25.84-17.633 0-34.844 5.5-48.465 15.484-14.164 10.379-23.848 24.79-28.004 41.672-4.477 18.203-4.453 47.496 21.11 83.7 23.355 33.073 62.694 64.26 116.925 92.683zM121.66 254.379c6.735-27.36 31.613-45.742 61.903-45.742 21.148 0 42.39 9.375 59.808 26.398a7.494 7.494 0 0 0 10.484 0c17.418-17.023 38.66-26.398 59.805-26.398 30.285 0 55.16 18.383 61.895 45.742 3.734 15.168 3.504 39.883-18.793 71.465-21.477 30.418-57.852 59.41-108.149 86.207-50.304-26.801-86.68-55.793-108.156-86.207-22.3-31.586-22.531-56.297-18.797-71.465zm0 0" fill="#405060" opacity="1" data-original="#000000" class=""></path><path d="M183.422 310.121c4.14 0 7.496-3.36 7.496-7.5v-11.8a7.495 7.495 0 0 0-7.496-7.497 7.496 7.496 0 0 0-7.5 7.496v11.801a7.5 7.5 0 0 0 7.5 7.5zM313.805 310.121c4.14 0 7.5-3.36 7.5-7.5v-11.8c0-4.141-3.36-7.497-7.5-7.497-4.14 0-7.5 3.356-7.5 7.496v11.801c0 4.14 3.36 7.5 7.5 7.5zM248.613 316.418c8.434 0 16.356-3.527 21.735-9.684a7.5 7.5 0 0 0-.707-10.582c-3.121-2.726-7.86-2.41-10.582.711-2.532 2.895-6.34 4.555-10.446 4.555-4.11 0-7.914-1.66-10.445-4.555a7.5 7.5 0 0 0-11.293 9.871c5.379 6.157 13.305 9.684 21.738 9.684zm0 0" fill="#405060" opacity="1" data-original="#000000" class=""></path><path d="M512 97.816c0-33.914-25.676-61.93-58.605-65.668v-5.441C453.395 12.257 441.637.5 427.188.5c-14.454 0-26.211 11.758-26.211 26.207v5.004h-37.84v-5.004C363.137 12.257 351.379.5 336.93.5c-14.453 0-26.207 11.758-26.207 26.207v5.004h-37.84v-5.004C272.883 12.257 261.125.5 246.676.5c-14.453 0-26.207 11.758-26.207 26.207v5.004h-37.84v-5.004C182.629 12.257 170.87.5 156.422.5c-14.453 0-26.211 11.758-26.211 26.207v5.164c-34.422 2.254-61.746 30.961-61.746 65.945v56.239c-.028 1.726-1.824 99.125-32.934 187.25a7.496 7.496 0 0 0 4.574 9.566 7.47 7.47 0 0 0 2.5.434 7.5 7.5 0 0 0 7.07-5.008c27.403-77.629 32.606-159.824 33.575-184.668h318.836c4.14 0 7.5-3.36 7.5-7.5s-3.36-7.5-7.5-7.5H83.465V97.816c0-26.71 20.597-48.703 46.746-50.921v4.82c0 14.203 11.914 26.207 26.207 26.207 14.215 0 26.21-12.016 26.21-26.207V46.71h37.837v5.004c0 14.45 11.758 26.207 26.207 26.207 14.246 0 26.21-11.969 26.21-26.207V46.71h37.84v5.004c0 14.238 11.965 26.207 26.208 26.207 14.218 0 26.207-12.012 26.207-26.207V46.71h37.84v5.004c0 14.203 11.906 26.207 26.207 26.207 14.222 0 26.21-12.008 26.21-26.207v-4.457C478.032 50.898 497 72.184 497 97.816v48.813h-64.918a7.499 7.499 0 1 0 0 14.996h64.668c-.684 16.012-3.176 55.516-11.93 101.305-.027.148-.058.297-.086.445-11.464 59.766-30.617 123.137-71.156 170.023-7.715 8.926-16.933 19.309-29.723 19.309H41.63c-9.746 0-18.402-5.07-23.156-13.559-4.786-8.546-4.578-18.644.554-27.015 6.586-10.738 12.801-22.606 18.48-35.266a7.503 7.503 0 0 0-3.773-9.914 7.504 7.504 0 0 0-9.914 3.777c-5.414 12.075-11.328 23.368-17.578 33.563-8.008 13.066-8.328 28.836-.855 42.18 7.445 13.297 20.992 21.234 36.242 21.234h30.926c9.484 25.715 34.207 43.223 62.015 43.223h311.325c36.449 0 66.105-29.657 66.105-66.106zM145.21 26.707c0-6.18 5.028-11.207 11.208-11.207 6.18 0 11.207 5.027 11.207 11.207v25.008c0 6.027-5.07 11.207-11.207 11.207-6.055 0-11.207-5.152-11.207-11.207zM246.673 15.5c6.183 0 11.21 5.027 11.21 11.207v25.008c0 6.027-5.077 11.207-11.21 11.207-6.18 0-11.207-5.027-11.207-11.207V26.707c0-6.18 5.027-11.207 11.207-11.207zm79.05 11.207c0-6.18 5.028-11.207 11.208-11.207 6.18 0 11.207 5.027 11.207 11.207v25.008c0 6.11-5.106 11.207-11.207 11.207-6.094 0-11.207-5.121-11.207-11.207zm90.255 0c0-6.18 5.027-11.207 11.207-11.207 6.183 0 11.21 5.027 11.21 11.207v25.008c0 6.094-5.124 11.207-11.21 11.207-6.094 0-11.207-5.117-11.207-11.207zM497 444.824c0 28.18-22.926 51.106-51.105 51.106H134.57c-19.574 0-37.172-11.215-45.699-28.223h294.984c10.727 0 20.91-4.066 28.665-11.45 8.718-8.296 16.566-17.452 23.671-27.16 25.387-34.687 41.309-75.566 52.606-116.777A589.752 589.752 0 0 0 497 278.418zm0 0" fill="#405060" opacity="1" data-original="#000000" class=""></path></g></svg>