<svg xmlns="http://www.w3.org/2000/svg" version="1.1" xmlns:xlink="http://www.w3.org/1999/xlink" width="58" height="58" x="0" y="0" viewBox="0 0 682.667 682.667" style="enable-background:new 0 0 512 512" xml:space="preserve" class=""><g><defs><clipPath id="a" clipPathUnits="userSpaceOnUse"><path d="M0 512h512V0H0Z" fill="#405060" opacity="1" data-original="#000000"></path></clipPath></defs><g clip-path="url(#a)" transform="matrix(1.33333 0 0 -1.33333 0 682.667)"><path d="M0 0c-143.313 140.061-380.709-86.437-7.04-286.63a14.928 14.928 0 0 1 14.079 0C380.708-86.437 143.314 140.061 0 0" style="fill-opacity:1;fill-rule:nonzero;stroke:none" transform="translate(256 378.491)" fill="#ff889e" data-original="#ff889e" class=""></path><path d="M0 0c-128.154 21.097-237.583-162.653 71.751-328.378a14.922 14.922 0 0 1 14.079 0 825.11 825.11 0 0 1 12.961 7.106C-162.601-175.232-105.067-17.74 0 0" style="fill-opacity:1;fill-rule:nonzero;stroke:none" transform="translate(177.209 420.24)" fill="#ff748f" data-original="#ff748f" class=""></path><path d="M0 0c223.867 179.734 20.949 346.864-107.001 221.819-54.477 53.24-122.539 53.507-165.475 22.395" style="stroke-width:15;stroke-linecap:round;stroke-linejoin:round;stroke-miterlimit:10;stroke-dasharray:none;stroke-opacity:1" transform="translate(363.001 156.672)" fill="none" stroke="#405060" stroke-width="15" stroke-linecap="round" stroke-linejoin="round" stroke-miterlimit="10" stroke-dasharray="none" stroke-opacity="" data-original="#000000" opacity="1" class=""></path><path d="M0 0c-46.105-60.879-24.763-178.418 179.905-288.069a14.928 14.928 0 0 1 14.079 0c28.786 15.421 53.932 30.999 75.787 46.553" style="stroke-width:15;stroke-linecap:round;stroke-linejoin:round;stroke-miterlimit:10;stroke-dasharray:none;stroke-opacity:1" transform="translate(69.055 379.93)" fill="none" stroke="#405060" stroke-width="15" stroke-linecap="round" stroke-linejoin="round" stroke-miterlimit="10" stroke-dasharray="none" stroke-opacity="" data-original="#000000" opacity="1" class=""></path><path d="M0 0c0 9.231-7.484 16.715-16.716 16.715-9.232 0-16.716-7.484-16.716-16.715" style="stroke-width:15;stroke-linecap:round;stroke-linejoin:round;stroke-miterlimit:10;stroke-dasharray:none;stroke-opacity:1" transform="translate(198.006 335.016)" fill="none" stroke="#405060" stroke-width="15" stroke-linecap="round" stroke-linejoin="round" stroke-miterlimit="10" stroke-dasharray="none" stroke-opacity="" data-original="#000000" opacity="1" class=""></path><path d="M0 0c0 9.231 7.484 16.715 16.716 16.715 9.232 0 16.716-7.484 16.716-16.715" style="stroke-width:15;stroke-linecap:round;stroke-linejoin:round;stroke-miterlimit:10;stroke-dasharray:none;stroke-opacity:1" transform="translate(313.994 335.016)" fill="none" stroke="#405060" stroke-width="15" stroke-linecap="round" stroke-linejoin="round" stroke-miterlimit="10" stroke-dasharray="none" stroke-opacity="" data-original="#000000" opacity="1" class=""></path><path d="M0 0c4.312-4.947 10.654-8.078 17.731-8.078 7.078 0 13.42 3.131 17.732 8.078" style="stroke-width:15;stroke-linecap:round;stroke-linejoin:round;stroke-miterlimit:10;stroke-dasharray:none;stroke-opacity:1" transform="translate(238.269 315.478)" fill="none" stroke="#405060" stroke-width="15" stroke-linecap="round" stroke-linejoin="round" stroke-miterlimit="10" stroke-dasharray="none" stroke-opacity="" data-original="#000000" opacity="1" class=""></path><path d="M0 0h-158.41l-25.005 68.327-36.982-101.05-.324.975-27.779 83.586-28.103-84.561-36.982 101.05L-338.59 0H-497" style="stroke-width:15;stroke-linecap:round;stroke-linejoin:round;stroke-miterlimit:10;stroke-dasharray:none;stroke-opacity:1" transform="translate(504.5 219.89)" fill="none" stroke="#405060" stroke-width="15" stroke-linecap="round" stroke-linejoin="round" stroke-miterlimit="10" stroke-dasharray="none" stroke-opacity="" data-original="#000000" opacity="1" class=""></path></g></g></svg>