<svg xmlns="http://www.w3.org/2000/svg" version="1.1" xmlns:xlink="http://www.w3.org/1999/xlink" width="58" height="58" x="0" y="0" viewBox="0 0 510 510" style="enable-background:new 0 0 512 512" xml:space="preserve" fill-rule="evenodd" class=""><g><path fill="#9bc9ff" d="M247.5 127.969c-27.888-3.676-49.441-27.567-49.441-56.451 0-28.885 21.553-52.775 49.441-56.451a57.284 57.284 0 0 1 7.5-.491c31.427 0 56.941 25.515 56.941 56.942 0 31.426-25.514 56.941-56.941 56.941-2.542 0-5.046-.167-7.5-.49zm-16.418 349.315c-50.767 27.946-114.967 22.596-160.595-16.045a143.398 143.398 0 0 1 15.167-17.881c13.973-13.973 28.816-24.353 44.126-31.183 26.119 32.018 65.885 52.464 110.428 52.464 3.526 0 7.021-.13 10.482-.384a141.69 141.69 0 0 1-19.608 13.029zm47.836 0a141.69 141.69 0 0 1-19.608-13.029c3.461.254 6.956.384 10.482.384 44.148 0 83.604-20.085 109.73-51.616.922.393 1.84.796 2.755 1.209 15.25 6.885 29.537 16.594 42.069 29.126a143.398 143.398 0 0 1 15.167 17.881c-45.628 38.641-109.828 43.991-160.595 16.045zM213.74 365.989c-12.731-48.567.865-101.935 38.632-138.479a143.323 143.323 0 0 1 16.291 16.863c28.633 34.96 37.87 79.447 29.012 120.43-18.993 15.702-33.845 36.236-42.675 59.719-8.609-22.897-22.944-42.99-41.26-58.533z" opacity="1" data-original="#9bc9ff" class=""></path><path fill="#405060" d="M253.72 472.16c-55.706 42.627-134.379 41.061-188.403-4.69a8 8 0 0 1-1.332-10.765 151.222 151.222 0 0 1 16.012-18.878c11.472-11.472 24.336-20.702 38.048-27.694-15.491-21.515-25.44-47.287-27.756-75.226a8 8 0 0 1 6.669-8.554 151.292 151.292 0 0 1 24.671-2.026c29.612 0 57.224 8.555 80.501 23.329-5.347-45.352 10.046-92.258 44.679-125.769a8 8 0 0 1 10.843-.261 151.26 151.26 0 0 1 17.2 17.803c25.795 31.495 36.686 70.311 33.525 107.906 23.17-14.577 50.596-23.008 79.994-23.008 8.403 0 16.643.7 24.671 2.026a8 8 0 0 1 6.669 8.554c-2.316 27.939-12.265 53.711-27.756 75.226 13.712 6.992 26.576 16.222 38.048 27.694a151.222 151.222 0 0 1 16.012 18.878 8 8 0 0 1-1.332 10.765c-54.117 45.83-132.968 47.322-188.691 4.469-.756.079-1.513.153-2.272.221zm-125.39-49.263c-13.385 6.405-25.929 15.154-37.019 26.244a134.878 134.878 0 0 0-9.738 10.85c41.686 31.459 97.511 35.443 142.775 11.948-38.008-3.983-71.801-22.119-96.018-49.042zm92.549-61.185a151.27 151.27 0 0 1 26.074 29.809v-64.075c0-4.416 3.584-8 8-8 4.415 0 8 3.584 8 8v64.217a151.247 151.247 0 0 1 27.446-31.062c7.412-37.946-1.513-78.784-27.925-111.034a134.991 134.991 0 0 0-9.833-10.764c-31.026 33.596-42.158 80.067-31.762 122.909zm42.668 63.027a149.536 149.536 0 0 1 2.874 9.06c6.997-8.56 15.347-17.691 23.132-23.413 22.414-16.478 37.816-19.655 37.816-19.655 4.314-.944 8.582 1.791 9.526 6.104s-1.791 8.582-6.104 9.526c0 0-12.837 3.003-31.761 16.916-10.159 7.468-21.311 21.402-28.35 30.961.114.839.222 1.679.322 2.522 67.33-.594 122.843-50.68 131.927-115.647a135.143 135.143 0 0 0-14.558-.786c-56.571 0-104.975 34.937-124.824 84.412zm-10.581 21.173c-13.207-60.384-66.99-105.585-131.337-105.585-4.919 0-9.776.268-14.558.786 9.139 65.356 65.263 115.652 133.137 115.652.317 0 .634-.001.95-.003-6.813-9.459-19.092-25.329-30.188-33.485-18.924-13.913-31.761-16.916-31.761-16.916-4.313-.944-7.048-5.213-6.104-9.526s5.212-7.048 9.526-6.104c0 0 15.402 3.177 37.816 19.655 11.75 8.637 24.79 25.041 32.519 35.526zm128.704-23.015c-24.217 26.923-58.01 45.059-96.018 49.042 45.264 23.496 101.089 19.511 142.775-11.948a134.878 134.878 0 0 0-9.738-10.85c-11.09-11.09-23.634-19.839-37.019-26.244zM182.143 318.204a8.005 8.005 0 0 1-7.774 8.221c-4.413.123-8.097-3.36-8.22-7.773l-1.526-54.563-32.37 33.855a7.995 7.995 0 0 1-2.926 1.944L53.468 328.89a9.062 9.062 0 0 1-.349.124 35.007 35.007 0 0 1-45.8-29.717l-.14-1.389c-1.598-15.792 7.631-30.675 22.464-36.27l75.09-31.547 59.413-64.346c.072-.078.146-.155.221-.23 14.994-14.994 32.575-14.299 51.895-14.299h77.476c19.32 0 36.901-.695 51.895 14.299.075.075.149.152.221.23l59.413 64.346 75.065 31.537c14.85 5.592 24.087 20.481 22.489 36.28l-.14 1.389a35.005 35.005 0 0 1-45.8 29.717 9.062 9.062 0 0 1-.349-.124l-75.859-29.002a7.995 7.995 0 0 1-2.926-1.944l-31.254-32.687 1.48 52.947a8.003 8.003 0 0 1-7.773 8.221 8.003 8.003 0 0 1-8.22-7.773l-2.062-73.719a8.003 8.003 0 0 1 4.915-7.606 8.002 8.002 0 0 1 8.865 1.854l44.37 46.405s73.989 28.287 74.005 28.292a19.006 19.006 0 0 0 24.689-16.191l.141-1.389a19.004 19.004 0 0 0-12.287-19.725 8.417 8.417 0 0 1-.312-.123l-76.835-32.28a8.006 8.006 0 0 1-2.779-1.949l-60.492-65.514c-11.593-11.481-25.544-9.491-40.46-9.491h-77.476c-14.921 0-28.877-1.991-40.475 9.506l-60.477 65.499a8.006 8.006 0 0 1-2.779 1.949l-76.835 32.28a8.417 8.417 0 0 1-.312.123 19.004 19.004 0 0 0-12.287 19.725l.141 1.389a19.003 19.003 0 0 0 24.705 16.186l73.989-28.287 44.37-46.405a8 8 0 0 1 13.78 5.305zM255 7.002c35.842 0 64.941 29.099 64.941 64.941 0 35.843-29.099 64.942-64.941 64.942s-64.941-29.099-64.941-64.942c0-35.842 29.099-64.941 64.941-64.941zm0 16c-27.012 0-48.941 21.93-48.941 48.941 0 27.012 21.929 48.942 48.941 48.942s48.941-21.93 48.941-48.942c0-27.011-21.929-48.941-48.941-48.941z" opacity="1" data-original="#6699ff" class=""></path></g></svg>