<svg xmlns="http://www.w3.org/2000/svg" version="1.1" xmlns:xlink="http://www.w3.org/1999/xlink" width="30" height="30" x="0" y="0" viewBox="0 0 495.996 495" style="enable-background:new 0 0 512 512" xml:space="preserve" class=""><g><path fill="#38b9d1" d="M98.113 188.535C48.343 188.535 8 228.925 8 278.75v26.477c0 7.14 5.781 12.925 12.91 12.925h154.403c7.132 0 12.91-5.785 12.91-12.925V278.75c0-49.824-40.344-90.215-90.11-90.215zm0 0" opacity="1" data-original="#38b9d1"></path><path d="M175.313 326.152H20.91C9.38 326.152 0 316.766 0 305.227V278.75c0-54.156 44.012-98.215 98.113-98.215 54.094 0 98.106 44.059 98.106 98.215v26.477c.004 11.539-9.375 20.925-20.906 20.925zm-77.2-129.617C52.836 196.535 16 233.415 16 278.75v26.477c0 2.714 2.203 4.925 4.91 4.925h154.406c2.707 0 4.91-2.21 4.91-4.925V278.75c-.003-45.336-36.84-82.215-82.113-82.215zm0 0" fill="#405060" opacity="1" data-original="#000000" class=""></path><path fill="#ffffff" d="M147.648 112.84c0-27.395-22.18-49.598-49.535-49.598-27.36 0-49.539 22.203-49.539 49.598 0 27.39 22.18 49.594 49.54 49.594 27.355 0 49.534-22.204 49.534-49.594zm0 0" opacity="1" data-original="#ffffff"></path><path d="M98.113 170.434c-31.73 0-57.543-25.836-57.543-57.594 0-31.762 25.813-57.594 57.543-57.594 31.727 0 57.535 25.836 57.535 57.594 0 31.754-25.808 57.594-57.535 57.594zm0-99.188c-22.91 0-41.543 18.66-41.543 41.594 0 22.93 18.633 41.594 41.543 41.594 22.903 0 41.535-18.66 41.535-41.594 0-22.938-18.632-41.594-41.535-41.594zm0 0" fill="#405060" opacity="1" data-original="#000000" class=""></path><path fill="#ffffff" d="M447.426 112.84c0-27.395-22.18-49.598-49.54-49.598-27.355 0-49.534 22.203-49.534 49.598 0 27.39 22.18 49.594 49.535 49.594 27.36 0 49.539-22.204 49.539-49.594zm0 0" opacity="1" data-original="#ffffff"></path><path d="M397.887 170.434c-31.727 0-57.535-25.836-57.535-57.594 0-31.762 25.808-57.594 57.535-57.594 31.73 0 57.543 25.836 57.543 57.594 0 31.754-25.817 57.594-57.543 57.594zm0-99.188c-22.903 0-41.535 18.66-41.535 41.594 0 22.93 18.632 41.594 41.535 41.594 22.91 0 41.543-18.66 41.543-41.594 0-22.938-18.637-41.594-41.543-41.594zm0 0" fill="#405060" opacity="1" data-original="#000000" class=""></path><path fill="#38b9d1" d="M397.887 182.406c-49.766 0-90.11 40.39-90.11 90.215v26.477c0 7.14 5.778 12.93 12.91 12.93H475.09c7.129 0 12.91-5.79 12.91-12.93V272.62c0-49.824-40.344-90.215-90.113-90.215zm0 0" opacity="1" data-original="#38b9d1"></path><path d="M475.09 320.031H320.688c-11.532 0-20.91-9.39-20.91-20.926v-26.48c0-54.156 44.011-98.215 98.105-98.215 54.101 0 98.113 44.059 98.113 98.215v26.48c.004 11.536-9.375 20.926-20.906 20.926zm-77.203-129.62c-45.27 0-82.106 36.882-82.106 82.214v26.48c0 2.715 2.203 4.926 4.91 4.926h154.407c2.707 0 4.91-2.21 4.91-4.926v-26.48c-.008-45.336-36.844-82.215-82.121-82.215zm0 0" fill="#405060" opacity="1" data-original="#000000" class=""></path><path fill="#f1656b" d="M248 162.191c-69.996 0-126.738 56.805-126.738 126.887v37.238c0 10.043 8.129 18.18 18.16 18.18h217.152c10.031 0 18.16-8.137 18.16-18.18v-37.238c.004-70.082-56.738-126.887-126.734-126.887zm0 0" opacity="1" data-original="#f1656b" class=""></path><path d="M356.578 352.496H139.422c-14.426 0-26.16-11.742-26.16-26.18v-37.238c0-74.375 60.437-134.887 134.738-134.887S382.738 214.7 382.738 289.078v37.238c0 14.438-11.734 26.18-26.16 26.18zM248 170.191c-65.473 0-118.738 53.332-118.738 118.887v37.238c0 5.614 4.558 10.18 10.16 10.18h217.152c5.602 0 10.16-4.566 10.16-10.18v-37.238c.004-65.555-53.261-118.887-118.734-118.887zm0 0" fill="#405060" opacity="1" data-original="#000000" class=""></path><path fill="#ffffff" d="M311.16 74.52c0-36.465-29.523-66.024-65.941-66.024S179.28 38.055 179.28 74.52c0 36.46 29.52 66.02 65.938 66.02s65.941-29.56 65.941-66.02zm0 0" opacity="1" data-original="#ffffff"></path><path d="M245.219 148.535c-40.766 0-73.938-33.207-73.938-74.015C171.277 33.703 204.45.496 245.22.496c40.773 0 73.941 33.207 73.941 74.024 0 40.808-33.172 74.015-73.941 74.015zm0-132.039c-31.946 0-57.938 26.031-57.938 58.024 0 31.992 25.992 58.015 57.938 58.015 31.949 0 57.941-26.027 57.941-58.015 0-31.993-25.992-58.024-57.941-58.024zm0 0" fill="#405060" opacity="1" data-original="#000000" class=""></path></g></svg>