<svg xmlns="http://www.w3.org/2000/svg" version="1.1" xmlns:xlink="http://www.w3.org/1999/xlink" width="30" height="30" x="0" y="0" viewBox="0 0 62 46" style="enable-background:new 0 0 512 512" xml:space="preserve" class=""><g><path fill="#f0bc5e" d="M35 42c-8.271 0-15-6.729-15-15s6.729-15 15-15 15 6.729 15 15-6.729 15-15 15z" opacity="1" data-original="#f0bc5e"></path><path d="M35 24c-1.654 0-3 1.346-3 3s1.346 3 3 3 3-1.346 3-3-1.346-3-3-3zm0 4a1.001 1.001 0 0 1 0-2 1.001 1.001 0 0 1 0 2z" fill="#405060" opacity="1" data-original="#000000" class=""></path><path d="M35 20c-3.859 0-7 3.14-7 7s3.141 7 7 7 7-3.14 7-7-3.141-7-7-7zm0 12c-2.757 0-5-2.243-5-5s2.243-5 5-5 5 2.243 5 5-2.243 5-5 5z" fill="#405060" opacity="1" data-original="#000000" class=""></path><path d="M57 8h-8.219l-1.054-4.213A4.99 4.99 0 0 0 42.877 0H27.123a4.993 4.993 0 0 0-4.851 3.787L21.219 8H18V7c0-1.654-1.346-3-3-3h-4C9.346 4 8 5.346 8 7v1H5c-2.757 0-5 2.243-5 5v28c0 2.757 2.243 5 5 5h52c2.757 0 5-2.243 5-5V13c0-2.757-2.243-5-5-5zm-34.219 2 1.431-5.728A2.998 2.998 0 0 1 27.123 2h15.754c1.379 0 2.576.935 2.911 2.272L47.219 10H57c1.654 0 3 1.346 3 3v25h-9.537a18.878 18.878 0 0 0 1.538-2.568A3.918 3.918 0 0 0 54 36c2.206 0 4-1.794 4-4s-1.794-4-4-4c-.017 0-.034.005-.051.005.018-.335.051-.666.051-1.005 0-10.477-8.523-19-19-19s-19 8.523-19 19c0 4.101 1.319 7.892 3.537 11H12V21.899A5.009 5.009 0 0 0 16 17v-7zm30.954 20.026c.088-.012.176-.026.265-.026 1.103 0 2 .897 2 2s-.897 2-2 2a1.96 1.96 0 0 1-1.2-.418c.423-1.139.737-2.327.935-3.556zM35 44c-9.374 0-17-7.626-17-17s7.626-17 17-17 17 7.626 17 17-7.626 17-17 17zM2 22h8v16H2zm8-15c0-.551.448-1 1-1h4c.552 0 1 .449 1 1v1h-6zm-5 3h9v7c0 1.654-1.346 3-3 3H2v-7c0-1.654 1.346-3 3-3zm0 34c-1.654 0-3-1.346-3-3v-1h19.182a19.075 19.075 0 0 0 5.384 4zm52 0H43.434a19.075 19.075 0 0 0 5.384-4H60v1c0 1.654-1.346 3-3 3z" fill="#405060" opacity="1" data-original="#000000" class=""></path><path d="M6 18h4c1.103 0 2-.897 2-2v-2c0-1.103-.897-2-2-2H6c-1.103 0-2 .897-2 2v2c0 1.103.897 2 2 2zm0-4h4l.001 2H6zM27 4h16v2H27zM55 18c1.654 0 3-1.346 3-3s-1.346-3-3-3-3 1.346-3 3 1.346 3 3 3zm0-4a1.001 1.001 0 1 1-1 1c0-.551.448-1 1-1z" fill="#405060" opacity="1" data-original="#000000" class=""></path></g></svg>