<svg xmlns="http://www.w3.org/2000/svg" version="1.1" xmlns:xlink="http://www.w3.org/1999/xlink" width="30" height="30" x="0" y="0" viewBox="0 0 32 32" style="enable-background:new 0 0 512 512" xml:space="preserve" class=""><g><path fill="#7ec352" d="M24 18c0-11-8-15-8-15S8 7 8 18c0 4 3.58 7 8 7s8-3 8-7z" opacity="1" data-original="#7ec352"></path><path fill="#6eab48" d="M22.23 16.55a.52.52 0 0 0-.68.22c-1.55 3-3.18 4.56-5.05 4.71v-3c1.35-.28 2.9-1.9 4.93-5.19a.5.5 0 1 0-.86-.52c-1.71 2.78-3.06 4.36-4.07 4.69v-3.25l3.85-3.86a.49.49 0 1 0-.7-.7l-3.15 3.14v-2.58l1.85-1.86a.49.49 0 1 0-.7-.7L16.5 8.79V6a.5.5 0 0 0-1 0v2.79l-1.15-1.14a.49.49 0 0 0-.7.7l1.85 1.86v2.58l-3.15-3.14a.49.49 0 0 0-.7.7l3.85 3.86v3.22c-1-.33-2.36-1.91-4.07-4.69a.5.5 0 0 0-.86.52c2 3.29 3.58 4.91 4.93 5.19v3c-1.85-.16-3.51-1.66-5.05-4.7a.51.51 0 1 0-.9.46c1.12 2.19 2.94 5.06 5.95 5.25V29a.5.5 0 0 0 1 0v-6.52c3-.19 4.83-3.06 5.95-5.25a.52.52 0 0 0-.22-.68z" opacity="1" data-original="#6eab48" class=""></path><path d="M24.5 18c0-11.18-8.19-15.41-8.28-15.45a.49.49 0 0 0-.44 0C15.69 2.59 7.5 6.82 7.5 18c0 4.06 3.48 7.26 8 7.48V29a.5.5 0 0 0 1 0v-3.52c4.5-.22 8-3.42 8-7.48zm-8 6.48v-2c3-.19 4.83-3.06 5.95-5.25a.51.51 0 0 0-.9-.46c-1.55 3-3.18 4.56-5.05 4.71v-3c1.35-.28 2.9-1.9 4.93-5.19a.5.5 0 1 0-.86-.52c-1.71 2.78-3.06 4.36-4.07 4.69v-3.25l3.85-3.86a.49.49 0 1 0-.7-.7l-3.15 3.14v-2.58l1.85-1.86a.49.49 0 1 0-.7-.7L16.5 8.79V6a.5.5 0 0 0-1 0v2.79l-1.15-1.14a.49.49 0 0 0-.7.7l1.85 1.86v2.58l-3.15-3.14a.49.49 0 0 0-.7.7l3.85 3.86v3.22c-1-.33-2.36-1.91-4.07-4.69a.5.5 0 0 0-.86.52c2 3.29 3.58 4.91 4.93 5.19v3c-1.85-.16-3.51-1.66-5.05-4.7a.51.51 0 1 0-.9.46c1.12 2.19 2.94 5.06 5.95 5.25v2c-4-.22-7-3-7-6.48 0-9.49 6.23-13.66 7.5-14.41 1.27.75 7.5 4.92 7.5 14.43 0 3.5-3.04 6.26-7 6.48z" fill="#405060" opacity="1" data-original="#000000" class=""></path></g></svg>