<svg xmlns="http://www.w3.org/2000/svg" version="1.1" xmlns:xlink="http://www.w3.org/1999/xlink" width="30" height="30" x="0" y="0" viewBox="0 0 512.002 512.002" style="enable-background:new 0 0 512 512" xml:space="preserve" class=""><g><path d="M218.899 288.039c-31.506-33.007-65.169-74.156-78.616-110.863-15.323 22.451-24.282 49.591-24.282 78.824 0 37.663 14.872 71.851 39.063 97.015l65.506-64.032-1.671-.944zM255.122 308.504l-67.902 69.465c20.314 11.48 43.782 18.032 68.781 18.032 24.701 0 47.907-6.397 68.053-17.624l-67.073-68.823-1.859-1.05zM285.022 282.185l71.382 71.382c24.506-25.214 39.597-59.628 39.597-97.566 0-19.037-3.8-37.187-10.682-53.732a139.88 139.88 0 0 0-18.753-32.158 140.801 140.801 0 0 0-25.557-25.355c-23.569-18.037-53.037-28.754-85.008-28.754-37.939 0-72.353 15.091-97.567 39.597l96.307 96.307 1.86 1.86 37.953-37.099c-7.001-7.001-7-18.456 0-25.456l15.91-15.91 50.912 50.912-15.91 15.91c-7 7-18.455 7-25.456 0l-37.099 37.953 2.111 2.109z" style="fill-rule:evenodd;clip-rule:evenodd;" fill="#a4fbc4" data-original="#a4fbc4"></path><path d="m409.105 178.482-63.64 63.64c-7 7-18.455 7-25.456 0l-25.456-25.456c-7-7.001-7-18.455 0-25.456l63.64-63.64" style="fill-rule:evenodd;clip-rule:evenodd;stroke-width:20;stroke-linecap:round;stroke-linejoin:round;stroke-miterlimit:22.9256;" fill-rule="evenodd" clip-rule="evenodd" fill="none" stroke="#405060" stroke-width="20" stroke-linecap="round" stroke-linejoin="round" stroke-miterlimit="22.9256" data-original="#020288" opacity="1"></path><path d="M320.01 242.121 181.821 383.492c-7.785 7.964-20.763 7.875-28.638 0h0c-7.875-7.875-7.964-20.853 0-28.638l141.371-138.189M313.646 178.482l44.548 44.547M383.65 153.026l-44.548 44.548M254.741 251.904 135.973 133.137c-11.71 43.701 37.82 107.648 82.926 154.903m38.082 21.514 71.501 73.367c7.773 7.975 20.762 7.875 28.638 0v0c7.874-7.874 7.874-20.764 0-28.638l-72.098-72.098" style="fill-rule:evenodd;clip-rule:evenodd;stroke-width:20;stroke-linecap:round;stroke-linejoin:round;stroke-miterlimit:22.9256;" fill-rule="evenodd" clip-rule="evenodd" fill="none" stroke="#405060" stroke-width="20" stroke-linecap="round" stroke-linejoin="round" stroke-miterlimit="22.9256" data-original="#020288" opacity="1"></path><circle cx="256.001" cy="256.001" r="246.001" style="fill-rule:evenodd;clip-rule:evenodd;stroke-width:20;stroke-linecap:round;stroke-linejoin:round;stroke-miterlimit:22.9256;" transform="rotate(-45.001 256 256.005)" fill-rule="evenodd" clip-rule="evenodd" fill="none" stroke="#405060" stroke-width="20" stroke-linecap="round" stroke-linejoin="round" stroke-miterlimit="22.9256" data-original="#020288" opacity="1"></circle></g></svg>