<svg xmlns="http://www.w3.org/2000/svg" version="1.1" xmlns:xlink="http://www.w3.org/1999/xlink" width="30" height="30" x="0" y="0" viewBox="0 0 32 32" style="enable-background:new 0 0 512 512" xml:space="preserve" class=""><g><path fill="#e6caa0" d="M8.618 10.462a1.566 1.566 0 0 0 0 2.214s4.914 5.769 5.251 5.846l5.414 1.68 2.205 2.215 5.396-5.437-1.387-1.623-3.172-4.769c-.19-.665.091-1.829-.397-2.318l-4.872-4.871c-.611-.611-1.604-.611-2.215 0S9.23 9.85 8.618 10.462z" opacity="1" data-original="#e6caa0"></path><g fill="#455a64"><path d="M8.618 13.176a.502.502 0 0 1-.354-.146 2.067 2.067 0 0 1 0-2.92c.295-.296 1.715-1.93 3.09-3.51 1.447-1.665 2.814-3.237 3.133-3.555a2.068 2.068 0 0 1 2.922 0l4.872 4.871a.5.5 0 0 1-.707.707l-4.872-4.871a1.067 1.067 0 0 0-1.508 0c-.293.293-1.713 1.925-3.086 3.504-1.449 1.667-2.818 3.241-3.137 3.56a1.068 1.068 0 0 0 0 1.507.5.5 0 0 1-.353.853zM21.488 22.916a.499.499 0 0 1-.354-.147l-2.205-2.215a.5.5 0 0 1 .709-.705l1.85 1.858 4.717-4.752-1.087-1.273-.511-.762a.499.499 0 1 1 .832-.553l.475.714 1.351 1.575a.5.5 0 0 1-.025.677l-5.396 5.437a.508.508 0 0 1-.356.146z" fill="#405060" opacity="1" data-original="#455a64" class=""></path></g><path fill="#ffffff" d="M23.016 7.514a1.566 1.566 0 0 0-2.214 0l.442-.443a1.567 1.567 0 0 0-2.215-2.215l.665-.664a1.566 1.566 0 0 0 0-2.214c-.612-.612-1.603-.612-2.084-.308l-4.429 4.429-.131.308 3.785-3.961s-.875-.67-1.462-.689c-.588-.02-2.573.998-2.573.998-.297.178-1.616 1.51-1.802 1.802L8.503 8.085c-.179.296.239.81.161 1.145L6.85 14.379l5.758 5.758 4.997-1.428c.664-.191 1.601-.741 2.09-1.23l4.871-4.871a1.566 1.566 0 1 0-2.214-2.215l.664-.664a1.566 1.566 0 0 0 0-2.215z" opacity="1" data-original="#ffffff"></path><path fill="#e6caa0" d="M16.418 2.914s-.762-.882-1.349-.901c-.537-.018-1.983.614-2.229.724.479.76.928 1.572 1.375 2.461z" opacity="1" data-original="#e6caa0"></path><path fill="#e6caa0" d="M15.069 2.013c-.537-.018-1.983.614-2.229.724.479.76.928 1.572 1.375 2.461z" opacity="1" data-original="#e6caa0"></path><path fill="#405060" d="M14.216 5.697a.5.5 0 0 1-.446-.275 28.69 28.69 0 0 0-1.352-2.419.502.502 0 0 1 .218-.724c.532-.237 1.813-.784 2.449-.767a.5.5 0 0 1 .483.516c-.009.275-.196.52-.517.483-.177.004-.798.179-1.482.457.361.605.721 1.266 1.092 2.003a.5.5 0 0 1-.445.726z" opacity="1" data-original="#455a64" class=""></path><path fill="#e6caa0" d="M24.736 10.594a1.566 1.566 0 0 0-2.385-.201l.605-.605c.552-.552.686-1.439.229-2.072a1.566 1.566 0 0 0-2.385-.201l.384-.385c.552-.551.686-1.438.23-2.071a1.569 1.569 0 0 0-2.387-.202l.606-.605c.551-.551.685-1.439.229-2.072a1.566 1.566 0 0 0-2.385-.2s-3.232 3.279-3.248 3.249c0 0-5.489 3.668-5.567 4.004l-1.905 5.33-1.704 1.713 5.929 5.929 1.607-1.597c.311-.309.69-.537 1.108-.669l3.905-1.228c.664-.191 1.601-.741 2.09-1.23l4.813-4.813c.554-.554.687-1.441.231-2.074z" opacity="1" data-original="#e6caa0"></path><path fill="#ffe0b2" d="M16.214 3.258c-.908.916-1.974 1.986-1.982 1.969 0 0-5.489 3.668-5.567 4.004l-1.905 5.33-1.704 1.713 5.929 5.929 1.607-1.597c.311-.309.69-.538 1.108-.669l3.905-1.228c.664-.191 1.601-.741 2.09-1.23l.186-.186c.341-1.229.537-2.518.537-3.855a14.39 14.39 0 0 0-4.204-10.18z" opacity="1" data-original="#ffe0b2" class=""></path><path fill="#ffffff" d="M12.798 6.452c-.053-.048-.099-.104-.148-.156-1.629 1.111-3.935 2.718-3.986 2.934l-1.905 5.33-1.704 1.713 1 1 1.704-1.713 1.905-5.83c.048-.207 2.149-1.678 3.756-2.777a6.456 6.456 0 0 1-.622-.501z" opacity="1" data-original="#ffffff"></path><path fill="#405060" d="M10.983 22.702a.501.501 0 0 1-.348-.141l-5.929-5.729a.5.5 0 0 1-.025-.692L6.32 14.3l.25-.698a.5.5 0 0 1 .942.337l-.282.789a.48.48 0 0 1-.098.164l-1.385 1.555 5.231 5.055 1.26-1.252a3.254 3.254 0 0 1 1.311-.791l3.905-1.228c.6-.173 1.458-.678 1.887-1.107l4.813-4.813c.399-.399.476-1.013.178-1.426a1.065 1.065 0 0 0-1.626-.14.5.5 0 0 1-.707-.708l.605-.605c.399-.399.476-1.013.178-1.426a1.065 1.065 0 0 0-1.626-.14.5.5 0 0 1-.707-.707l.384-.385c.399-.399.476-1.012.178-1.426a1.062 1.062 0 0 0-.786-.449 1.076 1.076 0 0 0-.841.309.501.501 0 0 1-.707-.708l.606-.605c.399-.398.475-1.012.177-1.426a1.059 1.059 0 0 0-.785-.448 1.071 1.071 0 0 0-.841.309c-3.382 3.431-3.376 3.433-3.677 3.39l.075-.495-.308-.392c.178-.153 2.057-2.049 3.199-3.208.433-.432 1.027-.651 1.631-.602s1.157.363 1.516.86c.425.589.476 1.37.185 2.037a2.092 2.092 0 0 1 1.366.845c.374.521.457 1.189.271 1.798a2.074 2.074 0 0 1 1.499.859c.425.588.475 1.369.184 2.036a2.07 2.07 0 0 1 1.366.843c.582.808.461 1.976-.281 2.718l-4.813 4.813c-.546.546-1.559 1.142-2.305 1.357l-3.894 1.224a2.24 2.24 0 0 0-.906.546l-1.607 1.597a.492.492 0 0 1-.352.146z" opacity="1" data-original="#455a64" class=""></path><path fill="#ff8a80" d="M27.508 30.5 19.5 22.476l7.497-7.397 3.511 3.421z" opacity="1" data-original="#ff8a80" class=""></path><path fill="#e67c73" d="m20.746 21.246 7.262 7.254-.5 2-8.008-8.024z" opacity="1" data-original="#e67c73" class=""></path><g fill="#fff"><path d="m26.035 16.027.962-.948 3.511 3.421-.401 1.6zM19.502 22.478l-.002-.002.469-.463z" fill="#ffffff" opacity="1" data-original="#ffffff"></path></g><path fill="#405060" d="M27.508 31a.502.502 0 0 1-.354-.146l-8-8a.5.5 0 0 1 0-.707l7.5-7.5a.5.5 0 0 1 .707 0l3.5 3.5a.5.5 0 0 1-.707.707l-3.146-3.146-6.793 6.792 7.646 7.646a.5.5 0 0 1-.353.854z" opacity="1" data-original="#455a64" class=""></path><path fill="#80d8ff" d="m4.5 30.5 8.008-8.024-7.497-7.397L1.5 18.5z" opacity="1" data-original="#80d8ff"></path><path fill="#73c2e6" d="M11.262 21.246 4 28.5l.5 2 8.008-8.024z" opacity="1" data-original="#73c2e6" class=""></path><g fill="#fff"><path d="m5.973 16.027-.962-.948L1.5 18.5l.4 1.6zM12.506 22.478l.002-.002-.469-.463z" fill="#ffffff" opacity="1" data-original="#ffffff"></path></g><path fill="#405060" d="M4.5 31a.5.5 0 0 1-.354-.853l7.646-7.646L5 15.707l-3.146 3.146a.5.5 0 0 1-.707-.707l3.5-3.5a.5.5 0 0 1 .707 0l7.5 7.5a.5.5 0 0 1 0 .707l-8 8A.5.5 0 0 1 4.5 31z" opacity="1" data-original="#455a64" class=""></path><path fill="#ffe0b2" d="m15.354 4.639-1.847-1.847a1.306 1.306 0 0 0-1.847 1.847l1.847 1.846a1.306 1.306 0 0 0 1.847-1.846z" opacity="1" data-original="#ffe0b2" class=""></path><path fill="#ffffff" d="M12.661 3.792c.51-.51 1.337-.51 1.847 0l.847.847-1.847-1.847a1.306 1.306 0 0 0-1.847 1.847l1 .999a1.307 1.307 0 0 1 0-1.846z" opacity="1" data-original="#ffffff"></path><path fill="#ffe0b2" d="m9.506 9.834-.867-.867a1.305 1.305 0 1 0-1.846 1.846l.867.867a1.305 1.305 0 1 0 1.846-1.846z" opacity="1" data-original="#ffe0b2" class=""></path><path fill="#ffffff" d="M7.793 9.967a1.296 1.296 0 0 1 1.767-.053c-.021-.025-.03-.057-.054-.08l-.867-.867a1.305 1.305 0 1 0-1.846 1.846l.867.867c.023.024.055.032.079.054a1.296 1.296 0 0 1 .054-1.767z" opacity="1" data-original="#ffffff"></path><path fill="#405060" d="M8.583 12.562a1.79 1.79 0 0 1-1.276-.529l-.867-.867a1.792 1.792 0 0 1-.53-1.278c0-.482.188-.935.53-1.275.678-.681 1.87-.681 2.552 0a.5.5 0 0 1-.707.707.825.825 0 0 0-1.139 0 .801.801 0 0 0 0 1.139l.867.868a.825.825 0 0 0 1.139 0 .5.5 0 0 1 .707.707c-.34.34-.794.528-1.276.528z" opacity="1" data-original="#455a64" class=""></path><path fill="#ffe0b2" d="M11.68 8.313 9.833 6.467a1.305 1.305 0 1 0-1.846 1.846l1.846 1.846a1.307 1.307 0 0 0 1.847-1.846z" opacity="1" data-original="#ffe0b2" class=""></path><path fill="#ffffff" d="M8.987 7.467a1.305 1.305 0 0 1 1.845-.002l-.999-.998a1.305 1.305 0 1 0-1.846 1.846l1 1a1.307 1.307 0 0 1 0-1.846z" opacity="1" data-original="#ffffff"></path><path fill="#405060" d="M10.757 11.041c-.482 0-.936-.188-1.277-.529L7.634 8.666c-.341-.341-.529-.794-.529-1.277s.188-.936.528-1.276c.68-.681 1.871-.681 2.553 0a.5.5 0 0 1-.707.707.825.825 0 0 0-1.139 0c-.152.152-.235.354-.235.569s.083.417.235.57l1.846 1.846a.825.825 0 0 0 1.14 0 .5.5 0 0 1 .707.706 1.79 1.79 0 0 1-1.276.53z" opacity="1" data-original="#455a64" class=""></path><path fill="#ffe0b2" d="m13.903 6.852-2.499-2.499A1.306 1.306 0 0 0 9.557 6.2l2.5 2.499a1.306 1.306 0 0 0 1.846-1.847z" opacity="1" data-original="#ffe0b2" class=""></path><path fill="#ffffff" d="M10.558 7.199a1.306 1.306 0 0 1 1.847-1.847l-1-1a1.306 1.306 0 0 0-1.847 1.847l2.5 2.499z" opacity="1" data-original="#ffffff"></path><path fill="#405060" d="M12.98 9.582c-.001 0-.001 0 0 0-.483 0-.937-.189-1.277-.53L9.204 6.553c-.704-.704-.704-1.85 0-2.554s1.85-.703 2.554 0a.5.5 0 0 1-.707.708.808.808 0 0 0-1.14 0 .8.8 0 0 0-.235.57.8.8 0 0 0 .235.57l2.5 2.499a.8.8 0 0 0 .568.237h.001a.8.8 0 0 0 .569-.236.5.5 0 0 1 .707.706c-.34.34-.793.528-1.276.529z" opacity="1" data-original="#455a64" class=""></path><path fill="#405060" d="M14.432 7.366c-.463 0-.925-.176-1.277-.527l-1.847-1.846a1.81 1.81 0 0 1 0-2.553c.68-.683 1.87-.683 2.554 0l1.591 1.591a.5.5 0 0 1-.707.707l-1.591-1.591a.807.807 0 0 0-1.139 1.14l1.846 1.845a.808.808 0 0 0 1.14 0 .5.5 0 0 1 .707.707 1.81 1.81 0 0 1-1.277.527z" opacity="1" data-original="#455a64" class=""></path></g></svg>