<svg width="77" height="67" viewBox="0 0 77 67" fill="none" xmlns="http://www.w3.org/2000/svg">
<path d="M64.3393 66.43H24.7794C23.3771 66.43 22.2402 65.2932 22.2402 63.8911V10.419C22.2402 9.01672 23.3771 7.87988 24.7794 7.87988H64.3393C65.7416 7.87988 66.8784 9.01672 66.8784 10.419V63.8911C66.8784 65.2932 65.7416 66.43 64.3393 66.43Z" fill="#2F3FCF"/>
<path d="M28.1654 12.4729C28.6571 10.8924 29.288 9.34497 30.0639 7.87988H24.7794C23.3771 7.87988 22.2402 9.01672 22.2402 10.4188V63.8909C22.2402 65.2932 23.3771 66.43 24.7794 66.43H34.0275C28.4335 53.2287 25.7825 38.7822 26.3706 24.4545C26.5366 20.4078 26.9622 16.3403 28.1654 12.4729Z" fill="#1C35A0"/>
<path d="M63.7875 63.7616H25.3314C25.0977 63.7616 24.9082 63.5721 24.9082 63.3384V10.9701C24.9082 10.7364 25.0977 10.5469 25.3314 10.5469H63.7875C64.0212 10.5469 64.2107 10.7364 64.2107 10.9701V63.3384C64.2107 63.5721 64.0212 63.7616 63.7875 63.7616Z" fill="#EFDADD"/>
<path d="M28.1657 12.4722C28.3674 11.8236 28.5943 11.1812 28.8429 10.5469H25.3314C25.0977 10.5469 24.9082 10.7364 24.9082 10.9701V63.3384C24.9082 63.5721 25.0977 63.7616 25.3314 63.7616H32.9437C28.0931 51.2942 25.8221 37.8223 26.3708 24.4538C26.5368 20.4071 26.9625 16.3395 28.1657 12.4722Z" fill="#E0C6CB"/>
<path d="M60.173 20.3751H38.6338C38.4943 20.3751 38.3813 20.2621 38.3813 20.1226C38.3813 19.9831 38.4943 19.8701 38.6338 19.8701H60.173C60.3125 19.8701 60.4255 19.9831 60.4255 20.1226C60.4255 20.2621 60.3125 20.3751 60.173 20.3751Z" fill="#C28900"/>
<path d="M60.173 18.8302H38.6338C38.4943 18.8302 38.3813 18.7172 38.3813 18.5777C38.3813 18.4382 38.4943 18.3252 38.6338 18.3252H60.173C60.3125 18.3252 60.4255 18.4382 60.4255 18.5777C60.4255 18.7172 60.3125 18.8302 60.173 18.8302Z" fill="#C28900"/>
<path d="M60.173 21.4141H38.6338C38.4943 21.4141 38.3813 21.5271 38.3813 21.6665C38.3813 21.806 38.4943 21.919 38.6338 21.919H60.173C60.3125 21.919 60.4255 21.806 60.4255 21.6665C60.4255 21.5272 60.3125 21.4141 60.173 21.4141Z" fill="#C28900"/>
<path d="M32.6286 24.0579C34.8019 24.0579 36.5638 22.2961 36.5638 20.1227C36.5638 17.9494 34.8019 16.1875 32.6286 16.1875C30.4552 16.1875 28.6934 17.9494 28.6934 20.1227C28.6934 22.2961 30.4552 24.0579 32.6286 24.0579Z" fill="#DE927A"/>
<path d="M31.6841 22.0364C31.6805 22.0364 31.6769 22.0364 31.6734 22.0362C31.5698 22.0332 31.472 21.9877 31.4028 21.9105L30.3715 20.7541C30.2329 20.5988 30.2466 20.3606 30.4019 20.222C30.5572 20.0835 30.7952 20.0972 30.934 20.2525L31.6997 21.1111L34.4905 18.3202C34.6377 18.1732 34.8761 18.1732 35.0233 18.3202C35.1705 18.4674 35.1705 18.7058 35.0233 18.853L31.9505 21.9259C31.8798 21.9968 31.7839 22.0364 31.6841 22.0364Z" fill="white"/>
<path d="M60.173 44.8302H38.6338C38.4943 44.8302 38.3813 44.7172 38.3813 44.5777C38.3813 44.4382 38.4943 44.3252 38.6338 44.3252H60.173C60.3125 44.3252 60.4255 44.4382 60.4255 44.5777C60.4255 44.7172 60.3125 44.8302 60.173 44.8302Z" fill="#C28900"/>
<path d="M60.173 43.2862H38.6338C38.4943 43.2862 38.3813 43.1732 38.3813 43.0337C38.3813 42.8942 38.4943 42.7812 38.6338 42.7812H60.173C60.3125 42.7812 60.4255 42.8942 60.4255 43.0337C60.4255 43.1732 60.3125 43.2862 60.173 43.2862Z" fill="#C28900"/>
<path d="M60.173 45.8701H38.6338C38.4943 45.8701 38.3813 45.9831 38.3813 46.1226C38.3813 46.2621 38.4943 46.3751 38.6338 46.3751H60.173C60.3125 46.3751 60.4255 46.2621 60.4255 46.1226C60.4255 45.9831 60.3125 45.8701 60.173 45.8701Z" fill="#C28900"/>
<path d="M32.6286 48.513C34.8019 48.513 36.5638 46.7512 36.5638 44.5778C36.5638 42.4044 34.8019 40.6426 32.6286 40.6426C30.4552 40.6426 28.6934 42.4044 28.6934 44.5778C28.6934 46.7512 30.4552 48.513 32.6286 48.513Z" fill="#DE927A"/>
<path d="M31.6841 46.4915C31.6805 46.4915 31.6769 46.4915 31.6734 46.4913C31.5698 46.4883 31.472 46.4428 31.4028 46.3655L30.3715 45.2091C30.2329 45.0539 30.2466 44.8157 30.4019 44.6771C30.5572 44.5386 30.7952 44.5523 30.934 44.7076L31.6997 45.5662L34.4905 42.7753C34.6377 42.6283 34.8761 42.6283 35.0233 42.7753C35.1705 42.9225 35.1705 43.1611 35.0233 43.3081L31.9505 46.381C31.8798 46.4518 31.7839 46.4915 31.6841 46.4915Z" fill="white"/>
<path d="M32.6286 36.2855C34.8019 36.2855 36.5638 34.5236 36.5638 32.3503C36.5638 30.1769 34.8019 28.415 32.6286 28.415C30.4552 28.415 28.6934 30.1769 28.6934 32.3503C28.6934 34.5236 30.4552 36.2855 32.6286 36.2855Z" fill="#DE927A"/>
<path d="M31.6841 34.264C31.6805 34.264 31.6769 34.264 31.6734 34.2638C31.5698 34.2608 31.472 34.2153 31.4028 34.138L30.3715 32.9816C30.2329 32.8263 30.2466 32.5881 30.4019 32.4496C30.5572 32.311 30.7952 32.3247 30.934 32.48L31.6997 33.3386L34.4905 30.5478C34.6377 30.4007 34.8761 30.4007 35.0233 30.5478C35.1705 30.695 35.1705 30.9333 35.0233 31.0806L31.9505 34.1534C31.8798 34.2243 31.7839 34.264 31.6841 34.264Z" fill="white"/>
<path d="M60.173 32.6026H38.6338C38.4943 32.6026 38.3813 32.4896 38.3813 32.3501C38.3813 32.2106 38.4943 32.0977 38.6338 32.0977H60.173C60.3125 32.0977 60.4255 32.2106 60.4255 32.3501C60.4255 32.4896 60.3125 32.6026 60.173 32.6026Z" fill="#C28900"/>
<path d="M60.173 31.0587H38.6338C38.4943 31.0587 38.3813 30.9457 38.3813 30.8062C38.3813 30.6667 38.4943 30.5537 38.6338 30.5537H60.173C60.3125 30.5537 60.4255 30.6667 60.4255 30.8062C60.4255 30.9455 60.3125 31.0587 60.173 31.0587Z" fill="#C28900"/>
<path d="M60.173 33.6426H38.6338C38.4943 33.6426 38.3813 33.7556 38.3813 33.8951C38.3813 34.0346 38.4943 34.1475 38.6338 34.1475H60.173C60.3125 34.1475 60.4255 34.0346 60.4255 33.8951C60.4255 33.7556 60.3125 33.6426 60.173 33.6426Z" fill="#C28900"/>
<path d="M32.6286 60.7406C34.8019 60.7406 36.5638 58.9787 36.5638 56.8053C36.5638 54.632 34.8019 52.8701 32.6286 52.8701C30.4552 52.8701 28.6934 54.632 28.6934 56.8053C28.6934 58.9787 30.4552 60.7406 32.6286 60.7406Z" fill="#DE927A"/>
<path d="M29.7603 54.1172C29.1004 54.8209 28.6934 55.7646 28.6934 56.8056C28.6934 58.6931 30.0229 60.2686 31.7961 60.6508C31.0419 58.4974 30.3622 56.3181 29.7603 54.1172Z" fill="#D3826C"/>
<path d="M31.6841 58.7181C31.6805 58.7181 31.6769 58.7181 31.6734 58.7179C31.5698 58.7149 31.472 58.6694 31.4028 58.5921L30.3715 57.4357C30.2329 57.2804 30.2466 57.0422 30.4019 56.9037C30.5572 56.7651 30.7952 56.7788 30.934 56.9341L31.6997 57.7927L34.4905 55.0019C34.6377 54.8548 34.8761 54.8548 35.0233 55.0019C35.1705 55.1491 35.1705 55.3874 35.0233 55.5347L31.9505 58.6075C31.8798 58.6786 31.7839 58.7181 31.6841 58.7181Z" fill="white"/>
<path d="M30.5468 56.8242C30.4947 56.8394 30.4449 56.865 30.4018 56.9036C30.2466 57.0421 30.233 57.2803 30.3714 57.4356L30.9352 58.0676C30.803 57.6539 30.6735 57.2395 30.5468 56.8242Z" fill="#F4F3F2"/>
<path d="M60.173 57.0567H38.6338C38.4943 57.0567 38.3813 56.9437 38.3813 56.8042C38.3813 56.6647 38.4943 56.5518 38.6338 56.5518H60.173C60.3125 56.5518 60.4255 56.6647 60.4255 56.8042C60.4255 56.9437 60.3125 57.0567 60.173 57.0567Z" fill="#C28900"/>
<path d="M60.173 55.5128H38.6338C38.4943 55.5128 38.3813 55.3998 38.3813 55.2603C38.3813 55.1208 38.4943 55.0078 38.6338 55.0078H60.173C60.3125 55.0078 60.4255 55.1208 60.4255 55.2603C60.4255 55.3998 60.3125 55.5128 60.173 55.5128Z" fill="#C28900"/>
<path d="M60.173 58.0967H38.6338C38.4943 58.0967 38.3813 58.2097 38.3813 58.3492C38.3813 58.4887 38.4943 58.6016 38.6338 58.6016H60.173C60.3125 58.6016 60.4255 58.4887 60.4255 58.3492C60.4255 58.2097 60.3125 58.0967 60.173 58.0967Z" fill="#C28900"/>
<path d="M53.9565 7.2915C53.3818 7.2915 52.9158 6.82564 52.9158 6.25074V5.71381C52.9158 4.90297 52.2583 4.24553 51.4475 4.24553H48.3801C48.3801 2.13542 46.6695 0.424805 44.5594 0.424805C42.4492 0.424805 40.7386 2.13542 40.7386 4.24553H37.6712C36.8604 4.24553 36.2029 4.90297 36.2029 5.71381V6.25074C36.2029 6.82545 35.7371 7.2915 35.1622 7.2915C33.6149 7.2915 32.2877 8.50204 32.2593 10.0489C32.2305 11.6251 33.4993 12.9118 35.0689 12.9118H54.0496C55.619 12.9118 56.888 11.6251 56.8593 10.0489C56.8312 8.50204 55.504 7.2915 53.9565 7.2915ZM44.5595 6.01649C43.5816 6.01649 42.7888 5.22369 42.7888 4.24572C42.7888 3.26774 43.5816 2.47495 44.5595 2.47495C45.5375 2.47495 46.3303 3.26774 46.3303 4.24572C46.3301 5.22369 45.5373 6.01649 44.5595 6.01649Z" fill="#DE927A"/>
<path d="M41.7042 7.05361C41.7283 4.72203 42.4929 2.4132 43.8198 0.498047C42.0638 0.842651 40.7386 2.38895 40.7386 4.24583H37.6712C36.8604 4.24583 36.2029 4.90326 36.2029 5.71411V6.25104C36.2029 6.82575 35.7371 7.2918 35.1622 7.2918C33.6149 7.2918 32.2877 8.50233 32.2593 10.0492C32.2305 11.6254 33.4993 12.9121 35.0689 12.9121H43.2349C42.2334 11.1323 41.683 9.0966 41.7042 7.05361Z" fill="#D3826C"/>
<path d="M71.4894 14.9199H60.8108C58.2461 14.9199 56.167 16.999 56.167 19.5637V23.373C56.167 25.9377 58.2461 28.0168 60.8108 28.0168H65.078L70.4475 31.0815C70.9118 31.3466 71.4894 31.0112 71.4894 30.4765V28.0168C74.0541 28.0168 76.1332 25.9377 76.1332 23.373V19.5637C76.1332 16.999 74.0541 14.9199 71.4894 14.9199Z" fill="#F9BA2D"/>
<path d="M64.6907 14.9199H60.8108C58.2461 14.9199 56.167 16.999 56.167 19.5637V23.373C56.167 25.9377 58.2461 28.0168 60.8108 28.0168H63.5795C62.5599 26.0091 62.0734 23.7283 62.2326 21.4811C62.4001 19.1185 63.2794 16.82 64.6907 14.9199Z" fill="#EAA326"/>
<path d="M72.445 21.921H59.8555C59.6055 21.921 59.4028 21.7184 59.4028 21.4683C59.4028 21.2183 59.6055 21.0156 59.8555 21.0156H72.445C72.695 21.0156 72.8977 21.2183 72.8977 21.4683C72.8977 21.7184 72.695 21.921 72.445 21.921Z" fill="white"/>
<path d="M72.445 19.3019H59.8555C59.6055 19.3019 59.4028 19.0992 59.4028 18.8492C59.4028 18.5991 59.6055 18.3965 59.8555 18.3965H72.445C72.695 18.3965 72.8977 18.5991 72.8977 18.8492C72.8977 19.0992 72.695 19.3019 72.445 19.3019Z" fill="white"/>
<path d="M72.445 23.6357H59.8555C59.6055 23.6357 59.4028 23.8384 59.4028 24.0884C59.4028 24.3385 59.6055 24.5412 59.8555 24.5412H72.445C72.695 24.5412 72.8977 24.3385 72.8977 24.0884C72.8977 23.8384 72.695 23.6357 72.445 23.6357Z" fill="white"/>
<path d="M59.8555 21.0156C59.6055 21.0156 59.4028 21.2183 59.4028 21.4683C59.4028 21.7184 59.6055 21.921 59.8555 21.921H62.2134C62.2183 21.7744 62.2225 21.6276 62.233 21.4811C62.2441 21.3254 62.2612 21.1705 62.2783 21.0156H59.8555Z" fill="#F4F3F2"/>
<path d="M62.2775 23.6348H59.8555C59.6055 23.6348 59.4028 23.8374 59.4028 24.0875C59.4028 24.3375 59.6055 24.5402 59.8555 24.5402H62.4063C62.3516 24.2401 62.3101 23.938 62.2775 23.6348Z" fill="#F4F3F2"/>
<path d="M59.8555 18.3965C59.6055 18.3965 59.4028 18.5991 59.4028 18.8492C59.4028 19.0992 59.6055 19.3019 59.8555 19.3019H62.5947C62.6735 18.9971 62.7603 18.6945 62.8618 18.3965H59.8555Z" fill="#F4F3F2"/>
<path d="M70.5405 47.6992C71.4375 44.1446 69.2832 40.5359 65.7286 39.6388C62.1741 38.7417 58.5653 40.896 57.6682 44.4506C56.7712 48.0052 58.9255 51.6139 62.4801 52.511C66.0346 53.4081 69.6434 51.2538 70.5405 47.6992Z" fill="#F2C714"/>
<path d="M61.6897 46.3407C61.389 43.967 61.9827 41.5086 63.2598 39.4893C59.9918 39.9034 57.4644 42.6916 57.4644 46.0721C57.4644 49.7381 60.4363 52.71 64.1023 52.71C64.4032 52.71 64.699 52.688 64.9894 52.6493C63.211 51.0065 61.9944 48.7464 61.6897 46.3407Z" fill="#E5B10C"/>
<path d="M64.1022 50.2388C62.1246 50.2388 60.4182 48.8314 60.0448 46.8923C60.023 46.7775 60.098 46.6666 60.2127 46.6444C60.3279 46.6231 60.4383 46.6972 60.4606 46.8123C60.7957 48.5526 62.3271 49.8156 64.1022 49.8156C65.8773 49.8156 67.4089 48.5524 67.7438 46.8121C67.7661 46.6974 67.8755 46.6231 67.9917 46.6442C68.1064 46.6664 68.1814 46.7773 68.1596 46.8922C67.7863 48.8312 66.0798 50.2388 64.1022 50.2388Z" fill="#272525"/>
<path d="M66.9637 44.1396C66.9637 44.584 66.6859 44.9442 66.3429 44.9442C66.0002 44.9442 65.7222 44.584 65.7222 44.1396C65.7222 43.6952 66 43.335 66.3429 43.335C66.6859 43.335 66.9637 43.6954 66.9637 44.1396Z" fill="#272525"/>
<path d="M61.2407 44.1396C61.2407 44.584 61.5186 44.9442 61.8615 44.9442C62.2042 44.9442 62.4823 44.584 62.4823 44.1396C62.4823 43.6952 62.2044 43.335 61.8615 43.335C61.5186 43.335 61.2407 43.6954 61.2407 44.1396Z" fill="#272525"/>
<path d="M62.6548 49.5176C61.5463 49.0463 60.6992 48.0518 60.4606 46.8121C60.4383 46.6973 60.3279 46.623 60.2127 46.6442C60.098 46.6664 60.023 46.7774 60.0448 46.8922C60.3428 48.4398 61.4909 49.646 62.9473 50.0711C62.8443 49.8897 62.7469 49.7049 62.6548 49.5176Z" fill="black"/>
<path d="M61.6175 44.8791C61.6295 44.3655 61.681 43.853 61.7699 43.3467C61.4708 43.4044 61.2407 43.7357 61.2407 44.1393C61.2407 44.4713 61.396 44.7561 61.6175 44.8791Z" fill="black"/>
<path d="M28.2749 47.0498H18.5028C17.5679 47.0498 16.8101 47.8076 16.8101 48.7426V57.3808C16.8101 58.3157 17.5679 59.0735 18.5028 59.0735H19.273V61.275C19.273 61.5935 19.6116 61.7978 19.8934 61.6495L24.7856 59.0737H28.2749C29.2098 59.0737 29.9676 58.3159 29.9676 57.381V48.7427C29.9676 47.8076 29.2098 47.0498 28.2749 47.0498Z" fill="#F9BA2D"/>
<path d="M18.5028 47.0498C17.5679 47.0498 16.8101 47.8076 16.8101 48.7426V57.3808C16.8101 58.3157 17.5679 59.0735 18.5028 59.0735H19.273V61.275C19.273 61.5935 19.6116 61.7978 19.8934 61.6495L23.1252 59.9479C21.8787 58.1238 21.0337 56.0238 20.7 53.8392C20.3539 51.5737 20.5571 49.23 21.2617 47.05H18.5028V47.0498Z" fill="#EAA326"/>
<path d="M28.1773 58.5101H18.6002C17.9586 58.5101 17.4365 57.9881 17.4365 57.3464V48.777C17.4365 48.1354 17.9586 47.6133 18.6002 47.6133H28.1773C28.819 47.6133 29.3411 48.1354 29.3411 48.777V57.3464C29.3411 57.9879 28.819 58.5101 28.1773 58.5101ZM18.6002 47.8246C18.0752 47.8246 17.648 48.2517 17.648 48.7768V57.3462C17.648 57.8713 18.0752 58.2984 18.6002 58.2984H28.1773C28.7024 58.2984 29.1296 57.8713 29.1296 57.3462V48.7768C29.1296 48.2517 28.7024 47.8246 28.1773 47.8246H18.6002Z" fill="white"/>
<path d="M22.1516 58.2986H18.6002C18.0752 58.2986 17.648 57.8715 17.648 57.3464V48.777C17.648 48.2519 18.0752 47.8248 18.6002 47.8248H21.0347C21.0535 47.7541 21.0734 47.6836 21.0931 47.6133H18.6002C17.9586 47.6133 17.4365 48.1354 17.4365 48.777V57.3464C17.4365 57.9881 17.9586 58.5101 18.6002 58.5101H22.2568C22.22 58.4406 22.1875 58.3688 22.1516 58.2986Z" fill="#F4F3F2"/>
<path d="M21.6591 56.304C21.6531 56.304 21.6469 56.304 21.6409 56.3038C21.4653 56.2987 21.2997 56.2216 21.1826 56.0906L19.4349 54.1312C19.2003 53.868 19.2232 53.4646 19.4864 53.2298C19.7494 52.995 20.1529 53.0181 20.3879 53.2813L21.6855 54.7362L26.4144 50.0073C26.6637 49.758 27.0679 49.758 27.3174 50.0073C27.5667 50.2566 27.5667 50.6608 27.3174 50.9102L22.1103 56.1173C21.9908 56.2368 21.8282 56.304 21.6591 56.304Z" fill="white"/>
<path d="M21.1826 56.0902C21.2051 56.1156 21.2311 56.137 21.257 56.1583C21.009 55.402 20.8201 54.6265 20.6998 53.8393C20.6872 53.7573 20.677 53.675 20.6659 53.5926L20.3879 53.2809C20.1531 53.0177 19.7496 52.9946 19.4864 53.2294C19.2232 53.4642 19.2003 53.8677 19.4349 54.1309L21.1826 56.0902Z" fill="#F4F3F2"/>
<path d="M34.8665 23.7861H5.72164C3.0825 23.7861 0.942871 25.9258 0.942871 28.5649C0.942871 31.204 3.08231 33.3437 5.72164 33.3437H15.2822H15.966L19.694 37.0717C20.0252 37.4032 20.5626 37.4032 20.8938 37.0717L24.6218 33.3437H34.8662C37.5053 33.3437 39.6449 31.2042 39.6449 28.5649C39.6453 25.9256 37.5057 23.7861 34.8665 23.7861Z" fill="#3D7FFF"/>
<path d="M7.76144 23.7861H5.72164C3.0825 23.7861 0.942871 25.9258 0.942871 28.5649C0.942871 31.204 3.08231 33.3437 5.72164 33.3437H8.92986C7.54863 31.0262 6.93086 28.2451 7.31833 25.5716C7.4065 24.9645 7.54694 24.3599 7.76144 23.7861Z" fill="#2572EF"/>
<path d="M6.89632 30.3279L5.71023 30.9515C5.57223 31.024 5.41112 30.9069 5.43744 30.7533L5.66398 29.4326C5.67451 29.3717 5.6542 29.3095 5.60983 29.2662L4.65028 28.3309C4.53861 28.2221 4.60027 28.0326 4.75443 28.0102L6.0804 27.8175C6.14169 27.8087 6.19451 27.7701 6.22196 27.7147L6.81491 26.513C6.88391 26.3733 7.08319 26.3733 7.152 26.513L7.74495 27.7147C7.7724 27.7701 7.82523 27.8087 7.88651 27.8175L9.21248 28.0102C9.36664 28.0326 9.4283 28.2221 9.31663 28.3309L8.35708 29.2662C8.31271 29.3095 8.29259 29.3717 8.30293 29.4326L8.52947 30.7533C8.55579 30.9069 8.39468 31.024 8.25669 30.9515L7.07059 30.3279C7.01645 30.2991 6.95103 30.2991 6.89632 30.3279Z" fill="#FFD527"/>
<path d="M6.8609 30.3467C6.72686 30.1013 6.6306 29.8362 6.58529 29.5586C6.44147 28.6768 6.80845 27.7472 7.46795 27.1524L7.15249 26.513C7.08349 26.3733 6.88421 26.3733 6.8154 26.513L6.22245 27.7147C6.195 27.7701 6.14217 27.8087 6.08089 27.8175L4.75492 28.0102C4.60076 28.0326 4.5391 28.2221 4.65077 28.3309L5.61032 29.2662C5.65469 29.3095 5.67481 29.3717 5.66447 29.4326L5.43793 30.7533C5.41161 30.9069 5.57272 31.024 5.71072 30.9515L6.8609 30.3467Z" fill="#F4BA14"/>
<path d="M13.509 30.3279L12.3229 30.9515C12.1849 31.024 12.0238 30.9069 12.0501 30.7533L12.2767 29.4326C12.2872 29.3717 12.2669 29.3095 12.2225 29.2662L11.263 28.3309C11.1515 28.2221 11.213 28.0326 11.3671 28.0102L12.6931 27.8175C12.7544 27.8087 12.8072 27.7701 12.8347 27.7147L13.4276 26.513C13.4966 26.3733 13.6959 26.3733 13.7649 26.513L14.3578 27.7147C14.3853 27.7701 14.4381 27.8087 14.4994 27.8175L15.8254 28.0102C15.9795 28.0326 16.0412 28.2221 15.9295 28.3309L14.97 29.2662C14.9256 29.3095 14.9055 29.3717 14.9158 29.4326L15.1424 30.7533C15.1687 30.9069 15.0076 31.024 14.8696 30.9515L13.6835 30.3279C13.6292 30.2991 13.5637 30.2991 13.509 30.3279Z" fill="#FFD527"/>
<path d="M13.4739 30.3467C13.3398 30.1013 13.2436 29.8362 13.1983 29.5586C13.0545 28.6768 13.4214 27.7472 14.0809 27.1524L13.7655 26.513C13.6965 26.3733 13.4972 26.3733 13.4282 26.513L12.8352 27.7147C12.8078 27.7701 12.755 27.8087 12.6937 27.8175L11.3677 28.0102C11.2136 28.0326 11.1519 28.2221 11.2636 28.3309L12.2231 29.2662C12.2675 29.3095 12.2876 29.3717 12.2773 29.4326L12.0507 30.7533C12.0244 30.9069 12.1855 31.024 12.3235 30.9515L13.4739 30.3467Z" fill="#F4BA14"/>
<path d="M20.1218 30.3279L18.9357 30.9515C18.7977 31.024 18.6366 30.9069 18.6629 30.7533L18.8895 29.4326C18.9 29.3717 18.8797 29.3095 18.8353 29.2662L17.8758 28.3309C17.7643 28.2221 17.8258 28.0326 17.9799 28.0102L19.3059 27.8175C19.3672 27.8087 19.42 27.7701 19.4475 27.7147L20.0404 26.513C20.1094 26.3733 20.3087 26.3733 20.3777 26.513L20.9706 27.7147C20.9981 27.7701 21.0509 27.8087 21.1122 27.8175L22.4382 28.0102C22.5923 28.0326 22.654 28.2221 22.5423 28.3309L21.5828 29.2662C21.5384 29.3095 21.5183 29.3717 21.5286 29.4326L21.7552 30.7533C21.7815 30.9069 21.6204 31.024 21.4824 30.9515L20.2963 30.3279C20.242 30.2991 20.1765 30.2991 20.1218 30.3279Z" fill="#FFD527"/>
<path d="M20.0867 30.3467C19.9526 30.1013 19.8564 29.8362 19.8111 29.5586C19.6672 28.6768 20.0342 27.7472 20.6937 27.1524L20.3783 26.513C20.3093 26.3733 20.11 26.3733 20.041 26.513L19.448 27.7147C19.4206 27.7701 19.3678 27.8087 19.3065 27.8175L17.9805 28.0102C17.8263 28.0326 17.7647 28.2221 17.8764 28.3309L18.8359 29.2662C18.8803 29.3095 18.9004 29.3717 18.8901 29.4326L18.6635 30.7533C18.6372 30.9069 18.7983 31.024 18.9363 30.9515L20.0867 30.3467Z" fill="#F4BA14"/>
<path d="M26.7346 30.3279L25.5485 30.9515C25.4105 31.024 25.2494 30.9069 25.2757 30.7533L25.5023 29.4326C25.5128 29.3717 25.4925 29.3095 25.4481 29.2662L24.4886 28.3309C24.3771 28.2221 24.4386 28.0326 24.5927 28.0102L25.9189 27.8175C25.9802 27.8087 26.033 27.7701 26.0604 27.7147L26.6534 26.513C26.7224 26.3733 26.9217 26.3733 26.9907 26.513L27.5836 27.7147C27.6111 27.7701 27.6639 27.8087 27.7252 27.8175L29.0511 28.0102C29.2053 28.0326 29.267 28.2221 29.1553 28.3309L28.1957 29.2662C28.1514 29.3095 28.1313 29.3717 28.1416 29.4326L28.3681 30.7533C28.3945 30.9069 28.2333 31.024 28.0954 30.9515L26.9093 30.3279C26.8549 30.2991 26.7895 30.2991 26.7346 30.3279Z" fill="#FFD527"/>
<path d="M26.6992 30.3467C26.5651 30.1013 26.4689 29.8362 26.4236 29.5586C26.2797 28.6768 26.6467 27.7472 27.3062 27.1524L26.9908 26.513C26.9218 26.3733 26.7225 26.3733 26.6535 26.513L26.0605 27.7147C26.0331 27.7701 25.9803 27.8087 25.919 27.8175L24.5928 28.0102C24.4387 28.0326 24.377 28.2221 24.4887 28.3309L25.4482 29.2662C25.4926 29.3095 25.5127 29.3717 25.5024 29.4326L25.2758 30.7533C25.2495 30.9069 25.4106 31.024 25.5486 30.9515L26.6992 30.3467Z" fill="#F4BA14"/>
<path d="M33.347 30.3279L32.1609 30.9515C32.0229 31.024 31.8618 30.9069 31.8881 30.7533L32.1147 29.4326C32.1252 29.3717 32.1049 29.3095 32.0605 29.2662L31.101 28.3309C30.9893 28.2221 31.051 28.0326 31.2051 28.0102L32.5311 27.8175C32.5924 27.8087 32.6452 27.7701 32.6726 27.7147L33.2656 26.513C33.3346 26.3733 33.5339 26.3733 33.6027 26.513L34.1956 27.7147C34.2231 27.7701 34.2759 27.8087 34.3372 27.8175L35.6632 28.0102C35.8173 28.0326 35.879 28.2221 35.7673 28.3309L34.8078 29.2662C34.7634 29.3095 34.7433 29.3717 34.7536 29.4326L34.9802 30.7533C35.0065 30.9069 34.8454 31.024 34.7074 30.9515L33.5213 30.3279C33.4673 30.2991 33.4019 30.2991 33.347 30.3279Z" fill="#FFD527"/>
<path d="M33.3116 30.3467C33.1775 30.1013 33.0813 29.8362 33.036 29.5586C32.8922 28.6768 33.2591 27.7472 33.9186 27.1524L33.6032 26.513C33.5342 26.3733 33.3349 26.3733 33.2661 26.513L32.6731 27.7147C32.6457 27.7701 32.5929 27.8087 32.5316 27.8175L31.2056 28.0102C31.0514 28.0326 30.9898 28.2221 31.1015 28.3309L32.061 29.2662C32.1054 29.3095 32.1255 29.3717 32.1152 29.4326L31.8886 30.7533C31.8623 30.9069 32.0234 31.024 32.1614 30.9515L33.3116 30.3467Z" fill="#F4BA14"/>
<path d="M47.9666 63.3474L46.2527 64.2485C46.0534 64.3532 45.8204 64.184 45.8584 63.9621L46.1857 62.0537C46.2008 61.9656 46.1716 61.8757 46.1075 61.8133L44.721 60.4618C44.5597 60.3046 44.6488 60.0307 44.8716 59.9983L46.7879 59.7199C46.8764 59.7071 46.953 59.6515 46.9924 59.5714L47.8493 57.835C47.949 57.6331 48.237 57.6331 48.3366 57.835L49.1935 59.5714C49.2332 59.6517 49.3095 59.7071 49.3981 59.7199L51.3144 59.9983C51.5371 60.0307 51.6263 60.3046 51.465 60.4618L50.0783 61.8133C50.0143 61.8757 49.985 61.9656 50.0001 62.0537L50.3274 63.9621C50.3653 64.1842 50.1324 64.3534 49.9331 64.2485L48.2191 63.3474C48.1402 63.3058 48.0456 63.3058 47.9666 63.3474Z" fill="#F2C714"/>
<path d="M49.9325 59.7969L48.5054 63.4973L48.7981 63.6513L50.266 59.8452L49.9325 59.7969Z" fill="#FFDB43"/>
<path d="M49.4407 59.7256L48.0542 63.3205C48.1102 63.3124 48.1679 63.32 48.2195 63.347L48.2849 63.3814L49.6813 59.7606L49.4407 59.7256Z" fill="#FFDB43"/>
<path d="M45.8582 63.9623C45.8203 64.1842 46.0532 64.3536 46.2525 64.2487L47.9217 63.3711C47.667 63.0878 47.4547 62.7663 47.2974 62.4192C47.0911 61.9646 46.9774 61.4529 47.0727 60.963C47.1778 60.4223 47.5296 59.9534 47.9595 59.6092C48.2537 59.3736 48.5842 59.1903 48.9256 59.0286L48.3366 57.835C48.237 57.6331 47.949 57.6331 47.8493 57.835L46.9924 59.5714C46.9528 59.6517 46.8764 59.7071 46.7879 59.7199L44.8716 59.9983C44.6488 60.0307 44.5597 60.3046 44.721 60.4618L46.1075 61.8133C46.1716 61.8757 46.2008 61.9656 46.1857 62.0537L45.8582 63.9623Z" fill="#E5B10C"/>
<path d="M20.7945 19.7224L19.0805 20.6235C18.8812 20.7282 18.6483 20.559 18.6862 20.3371L19.0136 18.4287C19.0286 18.3406 18.9995 18.2507 18.9353 18.1883L17.5487 16.8368C17.3874 16.6796 17.4765 16.4057 17.6992 16.3733L19.6155 16.0949C19.7041 16.0821 19.7806 16.0265 19.8201 15.9464L20.677 14.21C20.7766 14.0081 21.0646 14.0081 21.1643 14.21L22.0212 15.9464C22.0608 16.0265 22.1372 16.0821 22.2257 16.0949L24.142 16.3733C24.3648 16.4057 24.4539 16.6796 24.2926 16.8368L22.9059 18.1883C22.8418 18.2507 22.8127 18.3406 22.8277 18.4287L23.155 20.3371C23.193 20.559 22.96 20.7284 22.7608 20.6235L21.0468 19.7224C20.9682 19.6806 20.8736 19.6806 20.7945 19.7224Z" fill="#F2C714"/>
<path d="M22.7601 16.1729L21.333 19.8733L21.6259 20.027L23.0936 16.2212L22.7601 16.1729Z" fill="#FFDB43"/>
<path d="M22.2683 16.1016L20.8818 19.6965C20.9379 19.6884 20.9956 19.6959 21.0471 19.723L21.1125 19.7574L22.509 16.1365L22.2683 16.1016Z" fill="#FFDB43"/>
<path d="M18.6863 20.3373C18.6483 20.5592 18.8812 20.7285 19.0805 20.6236L20.7498 19.7461C20.495 19.4627 20.2828 19.1413 20.1254 18.7942C19.9192 18.3396 19.8054 17.8279 19.9008 17.338C20.0058 16.7973 20.3576 16.3284 20.7875 15.9842C21.0818 15.7486 21.4121 15.5653 21.7537 15.4036L21.1647 14.21C21.065 14.0081 20.777 14.0081 20.6774 14.21L19.8205 15.9464C19.781 16.0265 19.7045 16.0821 19.6159 16.0949L17.6996 16.3733C17.4769 16.4057 17.3879 16.6796 17.5491 16.8368L18.9357 18.1883C18.9999 18.2507 19.029 18.3406 19.014 18.4287L18.6863 20.3373Z" fill="#E5B10C"/>
<path d="M53.9527 64.4767L52.7388 65.115C52.5976 65.1892 52.4326 65.0693 52.4596 64.9121L52.6914 63.5604C52.7022 63.498 52.6815 63.4343 52.6362 63.3901L51.6541 62.4328C51.5398 62.3215 51.6029 62.1275 51.7607 62.1045L53.118 61.9073C53.1806 61.8983 53.2349 61.8588 53.263 61.802L53.87 60.5721C53.9405 60.4291 54.1445 60.4291 54.2152 60.5721L54.8222 61.802C54.8502 61.8588 54.9044 61.8983 54.9672 61.9073L56.3243 62.1045C56.4823 62.1275 56.5453 62.3215 56.4309 62.4328L55.4488 63.3901C55.4035 63.4343 55.3828 63.498 55.3936 63.5604L55.6254 64.9121C55.6523 65.0693 55.4874 65.1892 55.3462 65.115L54.1323 64.4767C54.0759 64.4472 54.0088 64.4472 53.9527 64.4767Z" fill="#F2C714"/>
<path d="M55.3454 61.9629L54.3345 64.584L54.542 64.6928L55.5817 61.9971L55.3454 61.9629Z" fill="#FFDB43"/>
<path d="M54.9968 61.9121L54.0146 64.4586C54.0543 64.4527 54.0953 64.4582 54.1318 64.4774L54.1782 64.5018L55.1673 61.9371L54.9968 61.9121Z" fill="#FFDB43"/>
<path d="M52.4596 64.9123C52.4327 65.0695 52.5976 65.1894 52.7387 65.1152L53.9211 64.4936C53.7406 64.293 53.5904 64.0652 53.4789 63.8195C53.3328 63.4974 53.2524 63.135 53.3197 62.7879C53.3941 62.405 53.6432 62.0729 53.9478 61.8289C54.1563 61.662 54.3901 61.5323 54.6321 61.4176L54.2147 60.5721C54.1442 60.4291 53.9403 60.4291 53.8696 60.5721L53.2625 61.802C53.2345 61.8588 53.1804 61.8983 53.1176 61.9073L51.7602 62.1045C51.6023 62.1275 51.5393 62.3215 51.6536 62.4328L52.6357 63.3901C52.681 63.4343 52.7017 63.498 52.691 63.5604L52.4596 64.9123Z" fill="#E5B10C"/>
<path d="M26.7046 15.7336L25.4907 16.3718C25.3495 16.4461 25.1844 16.3261 25.2115 16.169L25.4433 14.8172C25.454 14.7548 25.4333 14.6911 25.388 14.6469L24.4059 13.6896C24.2918 13.5783 24.3548 13.3843 24.5125 13.3614L25.8699 13.1642C25.9325 13.1551 25.9868 13.1157 26.0148 13.0589L26.6219 11.829C26.6926 11.6859 26.8964 11.6859 26.9671 11.829L27.5741 13.0589C27.6021 13.1157 27.6563 13.1551 27.7191 13.1642L29.0764 13.3614C29.2341 13.3843 29.2973 13.5783 29.183 13.6896L28.2009 14.6469C28.1556 14.6911 28.1349 14.7548 28.1456 14.8172L28.3774 16.169C28.4043 16.3261 28.2394 16.4461 28.0982 16.3718L26.8843 15.7336C26.8276 15.704 26.7606 15.704 26.7046 15.7336Z" fill="#F2C714"/>
<path d="M28.0973 13.2197L27.0864 15.8408L27.2938 15.9499L28.3334 13.2539L28.0973 13.2197Z" fill="#FFDB43"/>
<path d="M27.7485 13.1689L26.7666 15.7152C26.8063 15.7094 26.8473 15.7148 26.8837 15.734L26.9302 15.7585L27.9192 13.1938L27.7485 13.1689Z" fill="#FFDB43"/>
<path d="M25.2113 16.1692C25.1844 16.3263 25.3493 16.4463 25.4905 16.372L26.6728 15.7505C26.4923 15.5499 26.3421 15.322 26.2306 15.0763C26.0846 14.7543 26.0041 14.3918 26.0714 14.0448C26.1458 13.6618 26.3949 13.3298 26.6995 13.0858C26.908 12.9188 27.1419 12.7891 27.3838 12.6744L26.9666 11.829C26.896 11.6859 26.6922 11.6859 26.6215 11.829L26.0144 13.0589C25.9864 13.1157 25.9323 13.1551 25.8695 13.1642L24.5121 13.3614C24.3544 13.3843 24.2912 13.5783 24.4055 13.6896L25.3876 14.6469C25.4329 14.6911 25.4536 14.7548 25.4429 14.8172L25.2113 16.1692Z" fill="#E5B10C"/>
</svg>
