<svg width="79" height="70" viewBox="0 0 79 70" fill="none" xmlns="http://www.w3.org/2000/svg">
<path d="M42.2686 22.4141C39.186 22.4141 36.3001 23.2706 33.8343 24.7564L33.9397 24.9427C36.3744 23.4746 39.2243 22.6282 42.2686 22.6282C51.1897 22.6282 58.4472 29.886 58.4472 38.8071C58.4472 47.7283 51.1897 54.9859 42.2686 54.9859C39.2127 54.9859 36.3522 54.1336 33.9116 52.6552L33.7861 52.8299C36.2623 54.3334 39.1662 55.2 42.2686 55.2C51.3075 55.2 58.6613 47.8461 58.6613 38.8071C58.6613 29.768 51.3075 22.4141 42.2686 22.4141Z" fill="#001C5B"/>
<path d="M33.8832 25.201C34.0827 25.201 34.2445 25.0393 34.2445 24.8398C34.2445 24.6403 34.0827 24.4785 33.8832 24.4785C33.6837 24.4785 33.522 24.6403 33.522 24.8398C33.522 25.0393 33.6837 25.201 33.8832 25.201Z" fill="#001C5B"/>
<path d="M48.761 51.3778C49.8439 49.9337 58.3272 41.8115 53.5441 32.0646C48.761 22.318 31.4787 22.9948 29.8091 34.6818C29.6222 35.9914 29.5441 37.7739 29.5266 39.6874C28.6392 41.3002 26.7881 44.6848 26.4813 45.4136C26.0752 46.3785 26.3008 47.1755 27.4741 47.1755C28.2896 47.1755 29.1913 47.1755 29.6659 47.1755C29.711 48.4258 29.7549 49.4992 29.7773 50.2495C29.8287 51.9634 29.8316 56.1607 33.3288 56.1607C35.2241 56.1607 35.9164 56.1607 36.7286 56.1607L36.7581 67.0807H49.5732C49.5732 67.0807 48.2743 59.6868 48.2195 57.9657C48.1332 55.2597 47.6781 52.8216 48.761 51.3778Z" fill="#258FA3"/>
<path d="M33.0563 32.7619C33.4366 31.8252 34.6115 29.9382 35.2848 29.7147C35.7135 29.5724 36.2711 29.1793 36.763 28.8324C36.9046 28.7326 37.0383 28.6382 37.1671 28.551C37.2804 28.4743 37.3785 28.4049 37.465 28.3435C37.8385 28.079 38.0444 27.9332 38.4279 27.9511C38.5327 27.9559 38.627 27.8701 38.7719 27.7297C38.9747 27.5333 39.2524 27.2641 39.7148 27.3025C40.0292 27.3287 40.2001 27.3939 40.3248 27.4415C40.476 27.4993 40.5452 27.5256 40.8068 27.4426C41.3449 27.2722 42.0352 27.1271 42.6011 27.5215L42.642 27.5502C43.0958 27.8666 43.2177 27.9516 43.5645 28.0741C43.7732 28.148 43.8586 28.2434 43.9212 28.313C43.9712 28.369 43.9901 28.3899 44.1381 28.3899C44.5098 28.3899 44.8741 28.567 45.2211 28.9163C45.2974 28.9932 45.6089 29.0362 45.8593 29.0707C46.2488 29.1245 46.6517 29.1801 46.9108 29.377L46.9832 29.432C47.3635 29.7218 47.6146 29.9131 48.0281 29.9959C48.5025 30.0909 48.8214 30.5559 49.1026 30.966C49.1465 31.0299 49.1898 31.0931 49.2333 31.1542C49.3423 31.3076 49.5188 31.4036 49.7056 31.5055C49.9866 31.6585 50.3049 31.832 50.4723 32.2469C50.5898 32.538 50.6316 32.7339 50.6621 32.877C50.6975 33.0425 50.7152 33.1255 50.8231 33.2677C51.0555 33.5739 51.1665 33.9872 51.2949 34.4658C51.318 34.5519 51.342 34.6408 51.3674 34.7327L51.3863 34.8003C51.6031 35.5772 51.8138 36.4393 51.5667 36.8343C51.5083 36.9275 51.3977 37.0386 51.2022 37.0386C50.9497 37.0386 49.9966 37.0649 48.8929 37.0952C47.4226 37.1357 45.7563 37.1817 45.1647 37.1817H37.6735C37.3974 37.1817 37.1477 37.1864 36.9063 37.191C35.9814 37.2084 35.313 37.2208 34.7842 36.9014C34.5407 36.7544 34.207 36.6942 33.8841 36.636C33.4111 36.5509 32.9646 36.4705 32.7053 36.1308C32.4895 35.8481 32.4058 35.5047 32.4058 35.1337C32.4061 34.3633 32.7672 33.4737 33.0563 32.7619ZM51.0561 34.9248L51.037 34.8567C51.0112 34.7637 50.9869 34.6735 50.9635 34.5862C50.8421 34.1339 50.7462 33.7765 50.5628 33.5351C50.3984 33.3188 50.3646 33.1592 50.3251 32.9744C50.2951 32.8335 50.2611 32.6739 50.1581 32.4185C50.0439 32.1358 49.8081 32.0073 49.5584 31.8713C49.345 31.7551 49.1245 31.6349 48.9657 31.4116C48.9211 31.3487 48.8764 31.2836 48.8314 31.2179C48.5768 30.8467 48.3137 30.463 47.9695 30.394C47.4848 30.2969 47.1945 30.0759 46.793 29.77L46.721 29.7152C46.53 29.5702 46.1521 29.518 45.8185 29.4719C45.4454 29.4204 45.1508 29.3797 44.9938 29.2218C44.7118 28.9379 44.424 28.7939 44.1383 28.7939C43.8716 28.7939 43.7769 28.712 43.6808 28.6046C43.6336 28.5519 43.5926 28.5063 43.4635 28.4607C43.076 28.3236 42.9215 28.2161 42.4635 27.8966L42.4226 27.8681C41.9693 27.5522 41.3698 27.6832 40.8983 27.8325C40.5536 27.9418 40.4147 27.901 40.2166 27.8255C40.0973 27.78 39.9619 27.7282 39.6903 27.7056C39.3677 27.6788 39.1866 27.8543 38.9948 28.0401C38.8294 28.2004 38.6583 28.3661 38.4144 28.3548C38.1359 28.3418 38.0026 28.4362 37.6462 28.6886C37.5584 28.7508 37.4587 28.8214 37.3426 28.9C37.2165 28.9854 37.084 29.0788 36.9438 29.1778C36.4331 29.5379 35.8543 29.9458 35.3807 30.1031C34.9006 30.2624 33.7904 31.9011 33.3708 32.9343C32.9838 33.8874 32.4538 35.1927 32.9659 35.8635C33.1421 36.0942 33.5286 36.1639 33.9379 36.2375C34.2884 36.3006 34.6508 36.366 34.945 36.5435C35.3959 36.8159 35.9947 36.8046 36.9013 36.7876C37.1327 36.7832 37.3952 36.7783 37.674 36.7783H45.1653C45.7526 36.7783 47.4169 36.7325 48.8852 36.692C49.991 36.6615 50.946 36.6352 51.2027 36.6352C51.2624 36.6352 51.2772 36.6114 51.2862 36.5971C51.3205 36.5423 51.3345 36.4525 51.3345 36.3412C51.3342 35.9218 51.1329 35.2005 51.0561 34.9248Z" fill="white"/>
<path d="M49.4023 32.5624C49.4023 32.6111 49.4175 32.66 49.448 32.6987C49.9566 33.3424 50.525 33.3233 50.549 33.3221C50.6447 33.3176 50.7191 33.2237 50.7155 33.1123C50.7117 33.0008 50.6307 32.9143 50.535 32.9187C50.5186 32.9192 50.0989 32.9253 49.7041 32.4256C49.6392 32.3436 49.5293 32.3382 49.4586 32.4135C49.4212 32.4533 49.4023 32.5077 49.4023 32.5624Z" fill="white"/>
<path d="M46.9888 29.8059C46.9888 29.8721 47.0167 29.937 47.0682 29.9756C47.2598 30.1194 47.336 30.2395 47.4168 30.3664C47.5085 30.5107 47.6034 30.6599 47.834 30.788C48.1287 30.9517 48.2236 31.3829 48.2246 31.3871C48.2467 31.4957 48.3402 31.5628 48.4336 31.5372C48.527 31.5115 48.5846 31.4028 48.5627 31.2944C48.5575 31.2691 48.4316 30.6727 47.984 30.4241C47.8316 30.3393 47.7779 30.2548 47.6964 30.1267C47.6098 29.9903 47.5017 29.8206 47.2568 29.6368C47.1762 29.5763 47.0687 29.6033 47.0166 29.6968C46.9977 29.7305 46.9888 29.7685 46.9888 29.8059Z" fill="white"/>
<path d="M48.4414 31.8734C48.4414 31.942 48.4716 32.009 48.526 32.0469C48.8826 32.2945 48.9781 32.509 48.9953 32.6452C49.0142 32.7938 48.9448 32.9007 48.9141 32.94C48.8494 33.0223 48.8544 33.1499 48.9252 33.2251C48.996 33.3002 49.1059 33.2943 49.1707 33.2121C49.3064 33.0396 49.3675 32.8117 49.3392 32.5865C49.2983 32.2625 49.0847 31.9645 48.7046 31.7005C48.6223 31.6433 48.5156 31.6745 48.4664 31.7701C48.4493 31.8026 48.4414 31.8382 48.4414 31.8734Z" fill="white"/>
<path d="M45.0981 29.8066C45.0981 29.9022 45.1568 29.987 45.2406 30.0048C46.1305 30.1943 46.839 30.7683 47.1841 31.5796C47.4164 32.1257 47.4521 32.7121 47.2775 33.1101C47.2338 33.2094 47.2679 33.331 47.3533 33.3815C47.4388 33.4321 47.5433 33.3927 47.587 33.2934C47.8105 32.7841 47.7754 32.0587 47.4956 31.4008C47.1013 30.4741 46.3023 29.8206 45.3033 29.6078C45.2089 29.5878 45.1184 29.6603 45.1012 29.77C45.0992 29.7823 45.0981 29.7944 45.0981 29.8066Z" fill="white"/>
<path d="M48.1128 34.6138C48.1128 34.6463 48.1195 34.6794 48.1339 34.7099C48.1795 34.8078 48.2851 34.844 48.3694 34.7909C48.7055 34.5789 49.0748 34.6284 49.3574 34.9235C49.6419 35.2206 49.8338 35.7887 49.6209 36.3879C49.5843 36.4909 49.6264 36.6089 49.7153 36.6513C49.8039 36.6938 49.9054 36.6448 49.9422 36.5418C50.1824 35.8654 50.0408 35.0944 49.5898 34.6232C49.1989 34.2149 48.6679 34.1433 48.2038 34.4361C48.1457 34.4728 48.1128 34.5423 48.1128 34.6138Z" fill="white"/>
<path d="M45.1401 30.8746C45.1401 30.983 45.2141 31.0725 45.308 31.0762C46.113 31.1074 46.5405 31.7053 46.662 32.208C46.7766 32.6822 46.6462 33.1304 46.3217 33.3779C46.2414 33.4391 46.219 33.564 46.2718 33.6574C46.3244 33.7506 46.4321 33.7766 46.5123 33.7154C46.968 33.368 47.1534 32.7485 46.9966 32.0989C46.8314 31.415 46.2487 30.7089 45.3198 30.673C45.2239 30.6693 45.1437 30.7566 45.1405 30.868C45.1401 30.87 45.1401 30.8724 45.1401 30.8746Z" fill="white"/>
<path d="M43.5786 31.5982C43.5786 31.6063 43.5791 31.6146 43.58 31.6228C43.5916 31.7334 43.6781 31.8123 43.7733 31.7988C45.0823 31.6141 45.2979 32.8968 45.3063 32.9514L45.3259 33.0766L45.4316 33.1102C46.5094 33.4517 46.6531 34.342 46.6672 34.982C46.6697 35.0935 46.7495 35.1815 46.8454 35.1786C46.9413 35.1757 47.0175 35.0832 47.0146 34.9716C46.9889 33.8072 46.5324 33.0805 45.6202 32.7536C45.5177 32.3622 45.097 31.2056 43.7315 31.3985C43.6433 31.4106 43.5786 31.4978 43.5786 31.5982Z" fill="white"/>
<path d="M43.6416 28.4751C43.6416 28.5293 43.6601 28.5832 43.6971 28.623C43.9437 28.8895 44.0044 29.4863 44.0067 29.6938C44.0081 29.805 44.0868 29.8942 44.1827 29.8929C44.278 29.8915 44.3542 29.8015 44.3542 29.6912C44.3542 29.6904 44.3542 29.6897 44.3542 29.6889C44.3538 29.6515 44.3403 28.7671 43.9336 28.3275C43.8633 28.2516 43.7534 28.2562 43.6881 28.3378C43.6571 28.3765 43.6416 28.4259 43.6416 28.4751Z" fill="white"/>
<path d="M42.585 34.192C42.585 34.2799 42.6347 34.3608 42.7111 34.3861C42.7225 34.3899 43.8998 34.7965 44.6331 36.1237C44.6851 36.2176 44.7924 36.2448 44.8732 36.1846C44.9539 36.1244 44.9774 35.9995 44.9254 35.9058C44.119 34.4461 42.8594 34.0155 42.8061 33.998C42.7139 33.9675 42.6178 34.0297 42.5915 34.1367C42.5872 34.1551 42.585 34.1736 42.585 34.192Z" fill="white"/>
<path d="M41.8701 30.1295C41.8701 30.1982 41.9005 30.2653 41.9549 30.3031C42.569 30.7279 42.6174 31.7414 42.3817 32.281C42.3382 32.3803 42.3725 32.5018 42.4581 32.5522C42.5437 32.6026 42.6483 32.563 42.6916 32.4635C43.0279 31.6932 42.8812 30.474 42.1328 29.9562C42.0503 29.8992 41.9438 29.9305 41.8946 30.0263C41.878 30.0588 41.8701 30.0944 41.8701 30.1295Z" fill="white"/>
<path d="M41.7964 32.3704C41.7964 32.3831 41.7974 32.3961 41.7996 32.409C41.8178 32.5185 41.909 32.5899 42.0032 32.5689C42.6499 32.4234 43.8939 32.7634 44.6709 34.2959C44.7196 34.392 44.8262 34.4239 44.9088 34.3674C44.9915 34.3107 45.019 34.1872 44.9703 34.0911C44.5962 33.3534 44.074 32.7867 43.46 32.4517C42.9472 32.172 42.3921 32.0704 41.9373 32.1727C41.8542 32.1913 41.7964 32.2757 41.7964 32.3704Z" fill="white"/>
<path d="M38.8389 31.6372C38.8389 31.7114 38.8741 31.7827 38.9351 31.8179C39.0209 31.8677 39.1253 31.827 39.1681 31.7272C39.1779 31.7047 40.1679 29.4478 41.897 29.2424C41.9924 29.2312 42.0622 29.1322 42.052 29.0211C42.0423 28.9102 41.957 28.8296 41.8616 28.8409C41.0625 28.9358 40.2889 29.4355 39.6243 30.2861C39.1281 30.9209 38.8679 31.5221 38.8571 31.5474C38.8446 31.5764 38.8389 31.607 38.8389 31.6372Z" fill="white"/>
<path d="M37.9028 30.7097C37.9028 30.7938 37.9485 30.8724 38.021 30.9008C39.0196 31.2931 39.1208 32.3887 39.0296 33.239C39.0174 33.3494 39.0852 33.4504 39.1804 33.4642C39.2757 33.478 39.3623 33.3995 39.3743 33.2889C39.5257 31.8764 39.0845 30.8926 38.1323 30.5185C38.0414 30.4828 37.9428 30.5394 37.9121 30.6451C37.9057 30.6665 37.9028 30.6883 37.9028 30.7097Z" fill="white"/>
<path d="M38.5596 29.6889C38.5596 29.7879 38.6223 29.8744 38.7091 29.8885C38.8042 29.904 38.892 29.8272 38.9053 29.7169C38.9068 29.7046 39.072 28.4514 39.883 28.3627C39.9786 28.3523 40.0487 28.2542 40.0398 28.1429C40.0309 28.032 39.9461 27.9504 39.8507 27.9609C39.3957 28.0106 39.0274 28.3257 38.7853 28.8722C38.6106 29.2666 38.5633 29.6444 38.5614 29.6604C38.5601 29.67 38.5596 29.6795 38.5596 29.6889Z" fill="white"/>
<path d="M36.1265 30.6532C36.1265 30.9625 36.1811 31.2988 36.3158 31.6574C36.3542 31.7595 36.4565 31.8062 36.5445 31.7615C36.6324 31.7169 36.6726 31.598 36.6342 31.4959C36.0501 29.9413 37.2352 28.972 37.2478 28.9635C37.3304 28.9069 37.3581 28.7832 37.3092 28.6872C37.2605 28.5912 37.1539 28.5593 37.0713 28.6159C36.8368 28.7764 36.1265 29.5382 36.1265 30.6532Z" fill="white"/>
<path d="M37.0732 33.7365C37.0732 33.7738 37.0822 33.8114 37.1007 33.8451C37.1525 33.939 37.2599 33.9663 37.3406 33.9063C37.6931 33.6441 38.6489 33.2052 39.353 33.5209C39.7089 33.6805 39.9498 34.0211 40.0693 34.5334C40.0944 34.6409 40.1898 34.7045 40.2824 34.6753C40.3749 34.6461 40.4295 34.5354 40.4046 34.4277C40.2546 33.7846 39.9429 33.3527 39.4781 33.1441C38.6796 32.7859 37.6284 33.2129 37.1533 33.5661C37.1016 33.6049 37.0732 33.6701 37.0732 33.7365Z" fill="white"/>
<path d="M40.7617 36.9809C40.7617 36.9881 40.7621 36.9955 40.7627 37.0028C40.773 37.1135 40.8588 37.1936 40.9542 37.1816C41.8536 37.0684 42.3032 35.7044 42.2195 33.341C42.2187 33.315 42.2179 33.2955 42.2175 33.2828C42.2206 33.2422 42.213 33.1996 42.1934 33.1616C42.1526 33.0826 42.0705 33.0455 41.9945 33.0719C41.864 33.1173 41.8689 33.256 41.8724 33.3573C41.8822 33.6333 41.9119 34.473 41.7893 35.2727C41.6445 36.2182 41.3511 36.7255 40.9168 36.7801C40.8276 36.7917 40.7617 36.879 40.7617 36.9809Z" fill="white"/>
<path d="M38.3535 36.2554C38.3535 36.7663 38.5998 37.0977 38.6109 37.1126C38.6743 37.1962 38.7841 37.2044 38.856 37.1308C38.928 37.0571 38.9351 36.9297 38.8717 36.846C38.8643 36.8359 38.6725 36.5699 38.7045 36.1655C38.7343 35.7892 38.9474 35.4126 39.3378 35.0463C39.4125 34.9764 39.4241 34.8493 39.3638 34.7625C39.3034 34.6758 39.1942 34.6623 39.1195 34.7323C38.65 35.1728 38.3938 35.6458 38.3577 36.1384C38.3549 36.1783 38.3535 36.2174 38.3535 36.2554Z" fill="white"/>
<path d="M34.4541 35.094C34.4541 35.1149 34.4543 35.1357 34.4546 35.1564C34.4691 36.0755 34.7798 36.8179 35.2653 37.0938C35.3514 37.1429 35.4554 37.1014 35.4976 37.0013C35.5397 36.9011 35.504 36.7803 35.4178 36.7314C35.05 36.5224 34.814 35.916 34.8019 35.149C34.7884 34.2584 35.1099 33.0069 36.0641 32.413C36.1488 32.3604 36.1805 32.2382 36.1353 32.1398C36.0899 32.0415 35.9847 32.0046 35.9001 32.0571C34.83 32.7232 34.4541 34.094 34.4541 35.094Z" fill="white"/>
<path d="M21.8403 47.9724C20.6847 45.2956 20.0431 42.3469 20.0431 39.2508C20.0431 27.0764 29.9477 17.1717 42.1221 17.1717C54.2964 17.1717 64.201 27.0764 64.201 39.2508C64.201 41.9379 63.7178 44.5143 62.8348 46.8981L63.0459 46.9684C63.9361 44.5623 64.4233 41.9624 64.4233 39.2507C64.4233 26.9536 54.419 16.9492 42.1221 16.9492C29.8251 16.9492 19.8208 26.9536 19.8208 39.2507C19.8208 42.3813 20.4705 45.3627 21.64 48.0688L21.8403 47.9724Z" fill="#FA5C60"/>
<path d="M22.1769 48.1251C22.1769 48.3323 22.009 48.5002 21.8018 48.5002C21.5947 48.5002 21.4268 48.3323 21.4268 48.1251C21.4268 47.9179 21.5947 47.75 21.8018 47.75C22.009 47.75 22.1769 47.9179 22.1769 48.1251Z" fill="#FA5C60"/>
<path d="M62.92 47.2931C63.1271 47.2931 63.2951 47.1252 63.2951 46.918C63.2951 46.7109 63.1271 46.543 62.92 46.543C62.7129 46.543 62.5449 46.7109 62.5449 46.918C62.5449 47.1252 62.7129 47.2931 62.92 47.2931Z" fill="#FA5C60"/>
<path d="M61.0742 54.1996L61.9379 51.9888L60.7488 51.5242C60.7547 51.3064 60.7448 51.0856 60.7107 50.8625C60.6698 50.593 60.5988 50.3357 60.5051 50.0911L61.4668 49.3218L59.984 47.4684L58.9879 48.2655C58.5757 48.0116 58.1137 47.8364 57.6242 47.7592L57.4389 46.543L55.0925 46.9004L55.2849 48.1631C54.8504 48.3981 54.473 48.7149 54.1686 49.0912L53.0186 48.6419L52.1548 50.8528L53.3439 51.3174C53.338 51.5352 53.3479 51.756 53.382 51.979C53.423 52.2486 53.4939 52.5058 53.5877 52.7504L52.626 53.5198L54.1087 55.3731L55.1048 54.5761C55.517 54.8299 55.979 55.0051 56.4686 55.0823L56.6538 56.2986L59.0002 55.9412L58.8079 54.6786C59.2423 54.4436 59.6197 54.1268 59.9242 53.7504L61.0742 54.1996ZM57.4266 53.9176C56.0477 54.1277 54.7596 53.1801 54.5495 51.8012C54.3395 50.4222 55.287 49.1341 56.666 48.9241C58.0449 48.714 59.333 49.6616 59.543 51.0406C59.7531 52.4195 58.8055 53.7076 57.4266 53.9176Z" fill="#FF9E35"/>
<path d="M31.4766 27.5468C31.5316 27.404 31.5685 27.2589 31.5909 27.1136L32.2737 27.006L32.0663 25.6903L31.3591 25.8017C31.2288 25.5633 31.0523 25.3494 30.8352 25.1756L31.0832 24.5312L29.8401 24.0527L29.5827 24.7216C29.3056 24.7154 29.0335 24.7648 28.7805 24.8636L28.3449 24.3246L27.309 25.1621L27.7594 25.7193C27.696 25.8238 27.6394 25.9342 27.5939 26.0524C27.5389 26.1952 27.502 26.3403 27.4796 26.4856L26.7969 26.5932L27.0042 27.9089L27.7114 27.7975C27.8417 28.0358 28.0182 28.2497 28.2353 28.4235L27.9873 29.068L29.2306 29.5464L29.488 28.8775C29.7651 28.8838 30.0372 28.8344 30.2902 28.7356L30.7258 29.2743L31.7617 28.4369L31.3113 27.8797C31.3747 27.7754 31.4311 27.665 31.4766 27.5468ZM29.5911 27.8103C29.033 27.8413 28.5556 27.4138 28.5246 26.8558C28.4936 26.2976 28.9211 25.8201 29.4792 25.7892C30.0374 25.7582 30.5148 26.1857 30.5458 26.7439C30.5768 27.302 30.1493 27.7793 29.5911 27.8103Z" fill="#95B935"/>
<path d="M23.1377 32.584V39.1444V39.4253V39.7063H28.1942V39.4253V39.1444V32.584H23.1377Z" fill="#FFBA35"/>
<path d="M22.2969 32.584V39.4254H22.2994C22.2994 39.58 22.4258 39.7063 22.5802 39.7063H23.1365V39.4254V39.1446V32.584H22.2969Z" fill="#E59C28"/>
<path d="M28.193 32.3008H22.5802C22.4256 32.3008 22.2993 32.4272 22.2993 32.5816C22.2993 32.7362 22.4257 32.8625 22.5802 32.8625H28.193V32.3008Z" fill="#D1CECB"/>
<path d="M24.3179 35.2865L23.905 35.0706L23.4922 35.2865V32.8643H24.3179V35.2865Z" fill="#D41C5B"/>
<path d="M47.7434 14.082C47.7434 14.082 43.7486 14.0515 38.5596 19.0619C38.5596 19.0619 40.9875 19.1674 44.2327 18.052C47.4781 16.9365 47.7434 14.082 47.7434 14.082Z" fill="#95B935"/>
<path d="M47.7434 14.0825C41.8125 12.1181 38.5596 19.0623 38.5596 19.0623C43.7486 14.0521 47.7434 14.0825 47.7434 14.0825Z" fill="#89A52F"/>
<path d="M66.5717 33.9602C66.5717 34.4253 66.1948 34.8022 65.7297 34.8022C65.2648 34.8022 64.8877 34.4253 64.8877 33.9602C64.8877 33.4953 65.2646 33.1182 65.7297 33.1182C66.1948 33.1183 66.5717 33.4953 66.5717 33.9602Z" fill="#FFBA35"/>
<path d="M66.3214 35.0514H65.138C64.9998 35.0514 64.8877 34.9393 64.8877 34.8011C64.8877 34.6629 64.9998 34.5508 65.138 34.5508H66.3214C66.4596 34.5508 66.5717 34.6629 66.5717 34.8011C66.5717 34.9393 66.4596 35.0514 66.3214 35.0514Z" fill="#FFD335"/>
<path d="M67.9145 39.7175H63.5453C63.407 39.7175 63.2949 39.6054 63.2949 39.4671C63.2949 39.3289 63.407 39.2168 63.5453 39.2168H67.9145C68.0527 39.2168 68.1648 39.3289 68.1648 39.4671C68.1648 39.6054 68.0527 39.7175 67.9145 39.7175Z" fill="#FFD335"/>
<path d="M67.9145 40.2165H63.5453C63.407 40.2165 63.2949 40.1044 63.2949 39.9662C63.2949 39.8279 63.407 39.7158 63.5453 39.7158H67.9145C68.0527 39.7158 68.1648 39.8279 68.1648 39.9662C68.1648 40.1044 68.0527 40.2165 67.9145 40.2165Z" fill="#FFD335"/>
<path d="M66.1168 35.0527H65.73H65.3431C65.3431 37.1918 63.5454 39.2162 63.5454 39.2162H65.73H67.9145C67.9145 39.2162 66.1168 37.192 66.1168 35.0527Z" fill="#FFBA35"/>
<path d="M59.936 24.107C57.892 19.8805 50.5333 23.1384 59.936 30.3586C69.3387 23.1384 61.9799 19.8805 59.936 24.107Z" fill="#FA5C60"/>
<path d="M64.4233 26.7319H61.3061C61.3061 26.7319 60.8996 28.1362 60.8626 28.271C60.8256 28.4057 60.6038 24.8398 60.6038 24.8398L59.9356 26.8059H59.1256L58.9408 28.271L58.5344 24.8398L57.7954 26.7321H55.5781" stroke="#001C5B" stroke-miterlimit="10" stroke-linecap="round" stroke-linejoin="round"/>
<path d="M30.3873 16.1094H29.5171V19.2774H30.3873V16.1094Z" fill="#FA5C60"/>
<path d="M31.5366 18.1251V17.2549H28.3686V18.1251H31.5366Z" fill="#FA5C60"/>
<path d="M21.6909 27.5115C22.0108 27.206 22.2111 26.7762 22.2111 26.2989C22.2111 25.3723 21.4599 24.6211 20.5333 24.6211C19.6066 24.6211 18.8555 25.3723 18.8555 26.2989C18.8555 27.2256 19.6066 27.9767 20.5333 27.9767C20.7742 27.9767 21.0028 27.925 21.2098 27.8336L21.75 28.0339L21.6909 27.5115Z" fill="#FF9E35"/>
<path d="M53.8386 18.1335C53.5186 17.8281 53.3184 17.3982 53.3184 16.921C53.3184 15.9943 54.0695 15.2432 54.9962 15.2432C55.9228 15.2432 56.674 15.9943 56.674 16.921C56.674 17.8476 55.9228 18.5988 54.9962 18.5988C54.7553 18.5988 54.5267 18.5471 54.3197 18.4557L53.7794 18.656L53.8386 18.1335Z" fill="#258FA3"/>
<path d="M63.2462 59.1074H53.978V65.0016H63.2462L62.0572 62.0544L63.2462 59.1074Z" fill="#FF9E35"/>
<path d="M59.5136 60.9892L53.978 59.1074V65.0016L59.5136 67.078V60.9892Z" fill="#E58729"/>
<path d="M23.7725 59.1074H33.0406V65.0016H23.7725L24.9614 62.0544L23.7725 59.1074Z" fill="#FF9E35"/>
<path d="M27.5059 60.9892L33.0415 59.1074V65.0016L27.5059 67.078V60.9892Z" fill="#E58729"/>
<path d="M59.5134 60.9893C54.7716 63.3923 49.267 64.6797 43.5166 64.6797C37.7664 64.6797 32.2618 63.3925 27.52 60.9894V67.078C32.443 68.9893 37.8829 70.0004 43.5166 70.0004C49.1505 70.0004 54.5904 68.9891 59.5134 67.078V60.9893Z" fill="#FFA750"/>
<path d="M55.041 21.0811L62.9021 13.2197" stroke="#FA5C60" stroke-miterlimit="10"/>
<path d="M29.4765 21.0811L21.6152 13.2197" stroke="#FA5C60" stroke-miterlimit="10"/>
<path d="M62.5446 17.0482C64.6896 17.0482 66.4285 15.3093 66.4285 13.1642C66.4285 11.0192 64.6896 9.28027 62.5446 9.28027C60.3995 9.28027 58.6606 11.0192 58.6606 13.1642C58.6606 15.3093 60.3995 17.0482 62.5446 17.0482Z" fill="#FFD335"/>
<path d="M64.3648 10.9482H60.7246V15.9512H64.3648V10.9482Z" fill="#424147"/>
<path d="M64.1243 11.1729H60.9644V15.7256H64.1243V11.1729Z" fill="white"/>
<path d="M62.7473 12.0977H61.3442V12.1735H62.7473V12.0977Z" fill="#424147"/>
<path d="M62.7473 12.374H61.3442V12.4499H62.7473V12.374Z" fill="#424147"/>
<path d="M62.7473 12.6514H61.3442V12.7272H62.7473V12.6514Z" fill="#424147"/>
<path d="M63.7837 13.2598H61.3442V13.3356H63.7837V13.2598Z" fill="#424147"/>
<path d="M63.7837 13.6025H61.3442V13.6784H63.7837V13.6025Z" fill="#424147"/>
<path d="M63.7837 13.9463H61.3442V14.0221H63.7837V13.9463Z" fill="#424147"/>
<path d="M63.7837 14.2891H61.3442V14.3649H63.7837V14.2891Z" fill="#424147"/>
<path d="M63.7837 14.6318H61.3442V14.7077H63.7837V14.6318Z" fill="#424147"/>
<path d="M63.7837 14.9756H61.3442V15.0514H63.7837V14.9756Z" fill="#424147"/>
<path d="M63.0749 10.886C63.0749 10.6033 62.8456 10.374 62.563 10.374C62.2803 10.374 62.051 10.6033 62.051 10.886H61.6719V11.4674H63.454V10.886H63.0749ZM62.563 10.8797C62.4822 10.8797 62.4166 10.8143 62.4166 10.7334C62.4166 10.6527 62.482 10.5871 62.563 10.5871C62.6437 10.5871 62.7093 10.6527 62.7093 10.7334C62.7093 10.8142 62.6437 10.8797 62.563 10.8797Z" fill="#77C2BF"/>
<path d="M63.4183 12.2016C63.2586 11.8713 62.6834 12.1259 63.4183 12.6901C64.1531 12.1257 63.5781 11.8712 63.4183 12.2016Z" fill="#FA5C60"/>
<path d="M64.125 42.8975H73.7155" stroke="#FA5C60" stroke-miterlimit="10"/>
<path d="M74.9879 46.7826C77.133 46.7826 78.8719 45.0437 78.8719 42.8986C78.8719 40.7536 77.133 39.0146 74.9879 39.0146C72.8429 39.0146 71.104 40.7536 71.104 42.8986C71.104 45.0437 72.8429 46.7826 74.9879 46.7826Z" fill="#FFD335"/>
<path d="M74.3942 42.3632V41.6728C74.3942 41.5795 74.3187 41.5042 74.2256 41.5042H73.6314C73.6314 41.5028 73.6317 41.5017 73.6317 41.5003C73.6317 41.2008 73.389 40.958 73.0894 40.958C72.7899 40.958 72.5471 41.2008 72.5471 41.5003C72.5471 41.5017 72.5475 41.5028 72.5475 41.5042H71.9532C71.8602 41.5042 71.7847 41.5797 71.7847 41.6728V42.3632C72.0406 42.4067 72.2358 42.6281 72.2358 42.8964C72.2358 43.1648 72.0406 43.386 71.7847 43.4297V44.1201C71.7847 44.2132 71.8602 44.2887 71.9532 44.2887H72.5475C72.5475 44.2901 72.5471 44.2912 72.5471 44.2926C72.5471 44.5921 72.7899 44.8349 73.0894 44.8349C73.389 44.8349 73.6317 44.5921 73.6317 44.2926C73.6317 44.2912 73.6314 44.2901 73.6314 44.2887H74.2256C74.3187 44.2887 74.3942 44.2132 74.3942 44.1201V43.4297C74.1383 43.3862 73.9431 43.1648 73.9431 42.8964C73.9431 42.6281 74.1385 42.4069 74.3942 42.3632Z" fill="#258FA3"/>
<path d="M76.7866 44.2004H77.4769C77.5699 44.2004 77.6454 44.1248 77.6454 44.0318V43.4376C77.6468 43.4376 77.648 43.4379 77.6493 43.4379C77.9489 43.4379 78.1916 43.1951 78.1916 42.8956C78.1916 42.596 77.9489 42.3533 77.6493 42.3533C77.648 42.3533 77.6468 42.3536 77.6454 42.3536V41.7594C77.6454 41.6663 77.5699 41.5908 77.4769 41.5908H76.7866C76.7429 41.8467 76.5217 42.0419 76.2534 42.0419C75.9852 42.0419 75.7638 41.8467 75.7202 41.5908H75.0297C74.9366 41.5908 74.8611 41.6663 74.8611 41.7594V42.3536C74.8598 42.3536 74.8586 42.3533 74.8572 42.3533C74.5577 42.3533 74.3149 42.596 74.3149 42.8956C74.3149 43.1951 74.5577 43.4379 74.8572 43.4379C74.8586 43.4379 74.8598 43.4376 74.8611 43.4376V44.0318C74.8611 44.1248 74.9366 44.2004 75.0297 44.2004H75.7202C75.7638 43.9445 75.985 43.7493 76.2534 43.7493C76.5217 43.7494 76.7431 43.9446 76.7866 44.2004Z" fill="#FA5C60"/>
<path d="M20.1613 42.8975H10.5708" stroke="#FA5C60" stroke-miterlimit="10"/>
<path d="M9.29702 46.7826C11.4421 46.7826 13.1809 45.0437 13.1809 42.8986C13.1809 40.7536 11.4421 39.0146 9.29702 39.0146C7.15198 39.0146 5.41309 40.7536 5.41309 42.8986C5.41309 45.0437 7.15198 46.7826 9.29702 46.7826Z" fill="#FFD335"/>
<path d="M9.81363 43.0981C9.81363 42.9676 9.8674 42.8423 9.964 42.754C10.3837 42.3693 10.6833 41.6323 10.7366 40.7646H7.85986C7.91313 41.6323 8.21269 42.3693 8.63244 42.754C8.72886 42.8425 8.7828 42.9676 8.7828 43.0981C8.7828 43.2285 8.72903 43.3538 8.63244 43.4421C8.21269 43.8268 7.91313 44.5638 7.85986 45.4315H10.7366C10.6833 44.5638 10.3837 43.8268 9.964 43.4421C9.86757 43.3536 9.81363 43.2285 9.81363 43.0981Z" fill="#FA5C60"/>
<path d="M10.7541 40.7861H7.84083C7.78334 40.7861 7.73682 40.7396 7.73682 40.6821C7.73682 40.6246 7.78334 40.5781 7.84083 40.5781H10.7541C10.8116 40.5781 10.8581 40.6246 10.8581 40.6821C10.858 40.7396 10.8114 40.7861 10.7541 40.7861Z" fill="#258FA3"/>
<path d="M9.82374 43.6086C9.68366 43.4801 9.60325 43.2967 9.60325 43.1054C9.60325 42.9141 9.68366 42.7305 9.82374 42.6022C9.92371 42.5107 10.0152 42.3959 10.0977 42.2637L8.33035 41.9326C8.44785 42.2103 8.59906 42.441 8.77488 42.6022C8.91496 42.7305 8.9952 42.9139 8.9952 43.1054C8.9952 43.2969 8.9148 43.4803 8.77488 43.6086C8.42155 43.9324 8.16785 44.5364 8.08643 45.2394H10.5122C10.4309 44.5364 10.1772 43.9324 9.82374 43.6086Z" fill="white"/>
<path d="M10.7541 45.4483H7.84083C7.78334 45.4483 7.73682 45.4017 7.73682 45.3442C7.73682 45.2868 7.78334 45.2402 7.84083 45.2402H10.7541C10.8116 45.2402 10.8581 45.2868 10.8581 45.3442C10.858 45.4017 10.8114 45.4483 10.7541 45.4483Z" fill="#258FA3"/>
<path d="M22.1759 17.0482C24.321 17.0482 26.0599 15.3093 26.0599 13.1642C26.0599 11.0192 24.321 9.28027 22.1759 9.28027C20.0309 9.28027 18.292 11.0192 18.292 13.1642C18.292 15.3093 20.0309 17.0482 22.1759 17.0482Z" fill="#FFD335"/>
<path d="M22.8607 11.3221C22.6269 11.556 22.2124 11.5204 22.2124 11.5204C22.2124 11.5204 22.1768 11.1059 22.4106 10.8721C22.6444 10.6382 23.059 10.6738 23.059 10.6738C23.059 10.6738 23.0945 11.0885 22.8607 11.3221Z" fill="#6D9614"/>
<path d="M22.1774 11.8334C22.1757 11.8334 22.174 11.8334 22.1722 11.8331C22.1425 11.8304 22.1206 11.8039 22.1233 11.7743C22.1238 11.7695 22.1615 11.2974 21.7484 10.8864C21.7271 10.8653 21.7271 10.8309 21.7482 10.8098C21.7694 10.7888 21.8037 10.7886 21.8247 10.8097C22.2757 11.2581 22.2332 11.7631 22.2312 11.7845C22.2285 11.8125 22.2049 11.8334 22.1774 11.8334Z" fill="#6D3614"/>
<path d="M22.1768 11.7792C20.2926 10.2059 17.9021 15.0423 22.1757 15.1748C22.1761 15.1748 22.1764 15.175 22.1768 15.175C22.1771 15.175 22.1774 15.175 22.1778 15.175C26.4514 15.0425 24.0609 10.2059 22.1768 11.7792Z" fill="#95B935"/>
</svg>
