<svg width="72" height="61" viewBox="0 0 72 61" fill="none" xmlns="http://www.w3.org/2000/svg">
<path d="M67.5874 12.9658C68.5895 11.3741 68.1111 9.27102 66.5194 8.269C64.9272 7.26698 62.8246 7.74533 61.8226 9.33703L61.6714 9.57695L67.4362 13.2057L67.5874 12.9658Z" fill="#E78125"/>
<path d="M41.5977 42.6107L40.4892 49.0869C40.4419 49.3589 40.7498 49.5525 40.9745 49.3924L46.3343 45.5922C46.7526 45.2956 47.1413 44.9601 47.4955 44.5892L41.9997 41.1299C41.8189 41.6097 41.6844 42.1053 41.5977 42.6107Z" fill="#E78125"/>
<path d="M60.3113 11.7413L43.2266 38.8838L48.9913 42.5124L66.076 15.3698L60.3113 11.7413Z" fill="black"/>
<path d="M69.5982 14.5664L60.5269 28.9784C62.892 28.308 64.9251 26.7857 66.2345 24.7053L71.7599 15.9266L69.5982 14.5664Z" fill="#1B3342"/>
<path d="M42.8696 52.4045V55.6864C42.8696 56.2811 42.3868 56.7643 41.7917 56.7643H5.31405C4.71944 56.7643 4.23617 56.2815 4.23617 55.6864V14.6608C4.23617 14.2421 4.40218 13.8425 4.69727 13.5475L13.5475 4.69727C13.8421 4.40268 14.2421 4.23617 14.6608 4.23617H41.7922C42.3868 4.23617 42.8701 4.71895 42.8701 5.31405V32.7691L47.1062 26.0387V5.31405C47.1062 2.37943 44.7273 0 41.7927 0H13.1662C12.3661 0 11.6006 0.316764 11.0345 0.882801L0.882801 11.0345C0.316764 11.6006 0 12.3661 0 13.1662V55.6864C0 58.6211 2.37893 61 5.31356 61H41.7917C44.7263 61 47.1052 58.6211 47.1052 55.6864V49.4068L43.0336 52.2942C42.9799 52.3336 42.9257 52.369 42.8696 52.4045Z" fill="#1B3342"/>
<path d="M34.3124 48.123H12.7931C11.6231 48.123 10.6753 49.0714 10.6753 50.2414C10.6753 51.4109 11.6236 52.3592 12.7931 52.3592H34.3124C35.4824 52.3592 36.4302 51.4109 36.4302 50.2414C36.4307 49.0714 35.4824 48.123 34.3124 48.123Z" fill="#347ABD"/>
<path d="M34.3124 39.3125H12.7931C11.6231 39.3125 10.6753 40.2608 10.6753 41.4308C10.6753 42.6003 11.6236 43.5487 12.7931 43.5487H34.3124C35.4824 43.5487 36.4302 42.6003 36.4302 41.4308C36.4307 40.2608 35.4824 39.3125 34.3124 39.3125Z" fill="#E78125"/>
<path d="M34.3124 30.501H12.7931C11.6231 30.501 10.6753 31.4493 10.6753 32.6188C10.6753 33.7888 11.6236 34.7366 12.7931 34.7366H34.3124C35.4824 34.7366 36.4302 33.7883 36.4302 32.6188C36.4307 31.4493 35.4824 30.501 34.3124 30.501Z" fill="#347ABD"/>
<path d="M25.6662 13.1278C25.6662 12.0075 24.7583 11.0996 23.638 11.0996C22.5178 11.0996 21.6099 12.0075 21.6099 13.1278C21.6099 14.248 22.5178 15.1565 23.638 15.1565C24.7583 15.1565 25.6662 14.248 25.6662 13.1278Z" fill="black"/>
<path d="M30.5847 14.828C30.5847 10.9914 27.4742 7.88086 23.6376 7.88086C19.8009 7.88086 16.6904 10.9914 16.6904 14.828C16.6904 18.6646 19.8009 21.7751 23.6376 21.7751C27.4747 21.7751 30.5847 18.6651 30.5847 14.828ZM20.2404 18.0045V18.7597C19.1388 17.807 18.4417 16.399 18.4417 14.828C18.4417 11.9584 20.7685 9.63168 23.6381 9.63168C26.5081 9.63168 28.8344 11.9579 28.8344 14.828C28.8344 16.399 28.1373 17.807 27.0358 18.7597V18.0045C27.0358 16.9237 26.318 16.0103 25.3332 15.7147C24.846 16.035 24.2637 16.2222 23.6386 16.2222C23.0134 16.2222 22.4311 16.035 21.9439 15.7147C20.9581 16.0103 20.2404 16.9237 20.2404 18.0045Z" fill="#347ABD"/>
</svg>
